<?xml version="1.0" encoding="UTF-8"?>
<svg version="1.1" viewBox="0 0 220.6 283.4" xmlns="http://www.w3.org/2000/svg">
<path transform="matrix(1.333 0 0 1.333 6.642 17.18)" d="m2.929-6.374c0-0.2344 0-0.2578-0.2344-0.2578-0.6094 0.6328-1.488 0.6328-1.805 0.6328v0.3164c0.1992 0 0.7852 0 1.301-0.2578v5.156c0 0.3516-0.03516 0.4805-0.9258 0.4805h-0.3164v0.3047c0.3516-0.03516 1.207-0.03516 1.605-0.03516s1.266 0 1.617 0.03516v-0.3047h-0.3164c-0.9023 0-0.9258-0.1172-0.9258-0.4805z" aria-label="1"/>
<path transform="matrix(1.333 0 0 -1.333 96 96)" d="m-46.81 52.68v15.03" fill="none" stroke="#000" stroke-miterlimit="10" stroke-width=".5669"/>
<g transform="matrix(1.333 0 0 1.333 42.55 17.18)" aria-label="C→BPremise
2">
<path d="m7.569-6.925c0-0.02344-0.02344-0.09375-0.1055-0.09375-0.03516 0-0.04688 0.01172-0.1523 0.1172l-0.7031 0.7617c-0.08203-0.1406-0.5391-0.8789-1.652-0.8789-2.215 0-4.453 2.203-4.453 4.512 0 1.641 1.172 2.73 2.695 2.73 0.8672 0 1.617-0.3984 2.145-0.8555 0.9375-0.8203 1.102-1.723 1.102-1.758 0-0.1055-0.1055-0.1055-0.1172-0.1055-0.05859 0-0.1172 0.02344-0.1289 0.1055-0.09375 0.293-0.3164 0.9961-1.008 1.57-0.6914 0.5625-1.312 0.7266-1.84 0.7266-0.8906 0-1.945-0.5156-1.945-2.063 0-0.5742 0.2109-2.191 1.207-3.352 0.6094-0.7031 1.535-1.207 2.426-1.207 1.02 0 1.605 0.7734 1.605 1.922 0 0.3984-0.03516 0.4102-0.03516 0.5039 0 0.1055 0.1172 0.1055 0.1523 0.1055 0.1289 0 0.1289-0.02344 0.1758-0.1992z"/>
<path d="m18.91-2.296c-0.5508 0.4219-0.8203 0.832-0.9023 0.9609-0.4453 0.6914-0.5273 1.313-0.5273 1.324 0 0.1172 0.1289 0.1172 0.1992 0.1172 0.1758 0 0.1875-0.01172 0.2227-0.1992 0.2344-0.9727 0.8203-1.805 1.945-2.262 0.1172-0.04688 0.1523-0.07031 0.1523-0.1406 0-0.05859-0.07031-0.09375-0.08203-0.1055-0.4453-0.1641-1.641-0.668-2.027-2.344-0.02344-0.1172-0.03516-0.1406-0.2109-0.1406-0.07031 0-0.1992 0-0.1992 0.1172 0 0.02344 0.09375 0.6445 0.5156 1.312 0.1992 0.3047 0.4805 0.6445 0.9141 0.9609h-7.406c-0.1758 0-0.3516 0-0.3516 0.1992 0 0.1992 0.1758 0.1992 0.3516 0.1992z"/>
<path d="m24.92-0.7725c-0.09375 0.3867-0.1172 0.4688-0.9023 0.4688-0.1758 0-0.2695 0-0.2695 0.1992 0 0.1055 0.08203 0.1055 0.2695 0.1055h3.551c1.57 0 2.754-1.172 2.754-2.156 0-0.7148-0.5859-1.289-1.547-1.395 1.031-0.1992 2.086-0.9375 2.086-1.875 0-0.7383-0.6562-1.383-1.852-1.383h-3.352c-0.1875 0-0.293 0-0.293 0.1992 0 0.1172 0.09375 0.1172 0.2812 0.1172 0.02344 0 0.2109 0 0.375 0.01172 0.1875 0.02344 0.2695 0.03516 0.2695 0.1641 0 0.03516-0.01172 0.07031-0.03516 0.1875zm1.5-2.871 0.6211-2.473c0.09375-0.3516 0.1055-0.375 0.5391-0.375h1.289c0.8672 0 1.078 0.5859 1.078 1.02 0 0.8789-0.8555 1.828-2.074 1.828zm-0.4453 3.34c-0.1406 0-0.1523 0-0.2227-0.01172-0.09375-0.01172-0.1289-0.02344-0.1289-0.1055 0-0.02344 0-0.04688 0.05859-0.2227l0.6797-2.777h1.887c0.9609 0 1.148 0.7266 1.148 1.16 0 0.9844-0.8906 1.957-2.062 1.957z"/>
<path d="m63.19-4.944c0-0.9844-0.9844-1.863-2.344-1.863h-3.516v0.3164h0.2344c0.7734 0 0.7852 0.1055 0.7852 0.4688v5.25c0 0.3516-0.01172 0.4688-0.7852 0.4688h-0.2344v0.3047c0.3516-0.03516 1.078-0.03516 1.465-0.03516 0.375 0 1.125 0 1.477 0.03516v-0.3047h-0.2461c-0.7617 0-0.7852-0.1172-0.7852-0.4688v-2.379h1.688c1.195 0 2.262-0.7969 2.262-1.793zm-1.02 0c0 0.457 0 1.535-1.582 1.535h-1.383v-2.684c0-0.3281 0.02344-0.3984 0.4922-0.3984h0.8906c1.582 0 1.582 1.055 1.582 1.547zm5.215 1.148c0-0.3164-0.3047-0.6094-0.7266-0.6094-0.7383 0-1.09 0.668-1.23 1.102v-1.102l-1.383 0.1172v0.3047c0.6914 0 0.7734 0.07031 0.7734 0.5625v2.66c0 0.457-0.1055 0.457-0.7734 0.457v0.3047l1.137-0.03516c0.3984 0 0.8672 0 1.266 0.03516v-0.3047h-0.2109c-0.7383 0-0.7617-0.1172-0.7617-0.4688v-1.535c0-0.9844 0.4219-1.875 1.184-1.875 0.05859 0 0.08203 0 0.1055 0.01172-0.03516 0.01172-0.2344 0.1289-0.2344 0.3867 0 0.2812 0.2109 0.4336 0.4336 0.4336 0.1758 0 0.4219-0.1289 0.4219-0.4453zm4.421 2.613c0-0.1055-0.08203-0.1172-0.1289-0.1172-0.09375 0-0.1172 0.05859-0.1289 0.1406-0.3516 1.02-1.254 1.02-1.348 1.02-0.5039 0-0.9023-0.293-1.125-0.668-0.3047-0.4805-0.3047-1.137-0.3047-1.488h2.789c0.2109 0 0.2461 0 0.2461-0.2109 0-0.9844-0.5391-1.957-1.781-1.957-1.16 0-2.074 1.031-2.074 2.273 0 1.336 1.043 2.297 2.191 2.297 1.219 0 1.664-1.102 1.664-1.289zm-0.6562-1.324h-2.367c0.05859-1.488 0.9023-1.734 1.242-1.734 1.02 0 1.125 1.348 1.125 1.734zm9.041 2.508v-0.3047c-0.5156 0-0.7617 0-0.7734-0.3047v-1.898c0-0.8555 0-1.172-0.3164-1.523-0.1289-0.1758-0.4688-0.375-1.043-0.375-0.832 0-1.277 0.5977-1.441 0.9844-0.1406-0.8672-0.8789-0.9844-1.324-0.9844-0.7266 0-1.195 0.4336-1.477 1.055v-1.055l-1.406 0.1172v0.3047c0.7031 0 0.7852 0.07031 0.7852 0.5625v2.66c0 0.457-0.1172 0.457-0.7852 0.457v0.3047l1.125-0.03516 1.113 0.03516v-0.3047c-0.6562 0-0.7734 0-0.7734-0.457v-1.828c0-1.031 0.7148-1.594 1.348-1.594 0.6211 0 0.7383 0.5391 0.7383 1.102v2.32c0 0.457-0.1172 0.457-0.7734 0.457v0.3047l1.125-0.03516 1.113 0.03516v-0.3047c-0.668 0-0.7852 0-0.7852-0.457v-1.828c0-1.031 0.7148-1.594 1.348-1.594 0.6328 0 0.7383 0.5391 0.7383 1.102v2.32c0 0.457-0.1055 0.457-0.7734 0.457v0.3047l1.125-0.03516zm2.663 0v-0.3047c-0.6562 0-0.7031-0.05859-0.7031-0.4453v-3.656l-1.395 0.1172v0.3047c0.6562 0 0.7383 0.05859 0.7383 0.5508v2.672c0 0.457-0.1055 0.457-0.7734 0.457v0.3047l1.102-0.03516c0.3398 0 0.6914 0.02344 1.031 0.03516zm-0.5508-6.012c0-0.2695-0.2227-0.5273-0.5273-0.5273-0.3398 0-0.5391 0.2695-0.5391 0.5273 0 0.2695 0.2344 0.5273 0.5273 0.5273 0.3398 0 0.5391-0.2812 0.5391-0.5273zm4.444 4.734c0-0.5273-0.293-0.8203-0.4219-0.9492-0.3281-0.3164-0.7148-0.3984-1.137-0.4688-0.5508-0.1172-1.219-0.2461-1.219-0.8203 0-0.3516 0.2578-0.7617 1.113-0.7617 1.102 0 1.148 0.9023 1.172 1.207 0 0.09375 0.1172 0.09375 0.1172 0.09375 0.1289 0 0.1289-0.04688 0.1289-0.2461v-0.9961c0-0.1758 0-0.2461-0.1172-0.2461-0.04687 0-0.07031 0-0.1992 0.1172-0.02344 0.04688-0.1289 0.1289-0.1641 0.1641-0.375-0.2812-0.7852-0.2812-0.9375-0.2812-1.219 0-1.594 0.668-1.594 1.23 0 0.3398 0.1641 0.6211 0.4336 0.8438 0.3164 0.2578 0.5977 0.3164 1.312 0.457 0.2227 0.03516 1.031 0.1992 1.031 0.9141 0 0.5156-0.3516 0.9141-1.125 0.9141-0.832 0-1.195-0.5742-1.383-1.418-0.03516-0.1289-0.03516-0.1758-0.1406-0.1758-0.1289 0-0.1289 0.07031-0.1289 0.2578v1.312c0 0.1641 0 0.2344 0.1055 0.2344 0.05859 0 0.07031 0 0.2578-0.1992 0.01172-0.01172 0.01172-0.03516 0.1992-0.2227 0.4336 0.4219 0.8789 0.4219 1.09 0.4219 1.148 0 1.605-0.668 1.605-1.383zm4.477 0.09375c0-0.1055-0.08203-0.1172-0.1289-0.1172-0.09375 0-0.1172 0.05859-0.1289 0.1406-0.3516 1.02-1.254 1.02-1.348 1.02-0.5039 0-0.9023-0.293-1.125-0.668-0.3047-0.4805-0.3047-1.137-0.3047-1.488h2.789c0.2109 0 0.2461 0 0.2461-0.2109 0-0.9844-0.5391-1.957-1.781-1.957-1.16 0-2.074 1.031-2.074 2.273 0 1.336 1.043 2.297 2.191 2.297 1.219 0 1.664-1.102 1.664-1.289zm-0.6562-1.324h-2.367c0.05859-1.488 0.9023-1.734 1.242-1.734 1.02 0 1.125 1.348 1.125 1.734z"/>
<path d="m-25.67 18.56 1.055-1.031c1.559-1.371 2.156-1.91 2.156-2.906 0-1.137-0.9023-1.934-2.121-1.934-1.125 0-1.852 0.9141-1.852 1.805 0 0.5508 0.4922 0.5508 0.5273 0.5508 0.1641 0 0.5156-0.1172 0.5156-0.5273 0-0.2578-0.1875-0.5156-0.5273-0.5156-0.08203 0-0.1055 0-0.1289 0.01172 0.2227-0.6445 0.7617-1.02 1.336-1.02 0.9141 0 1.336 0.8086 1.336 1.629 0 0.7969-0.4922 1.582-1.043 2.203l-1.91 2.133c-0.1055 0.1055-0.1055 0.1289-0.1055 0.3633h3.691l0.2812-1.734h-0.2578c-0.04687 0.3047-0.1172 0.7383-0.2109 0.8906-0.07031 0.08203-0.7266 0.08203-0.9492 0.08203z"/>
</g>
<path transform="matrix(1.333 0 0 -1.333 96 96)" d="m-46.81 33.35v19.32" fill="none" stroke="#000" stroke-miterlimit="10" stroke-width=".5669"/>
<g transform="matrix(1.333 0 0 1.333 42.55 42.94)" aria-label="D∨CPremise
3">
<path d="m1.581-0.7738c-0.09375 0.3867-0.1172 0.4688-0.9023 0.4688-0.1758 0-0.2812 0-0.2812 0.1875 0 0.1172 0.09375 0.1172 0.2812 0.1172h3.293c2.074 0 4.031-2.098 4.031-4.289 0-1.395-0.8438-2.52-2.332-2.52h-3.352c-0.1875 0-0.293 0-0.293 0.1992 0 0.1172 0.08203 0.1172 0.2812 0.1172 0.1289 0 0.3164 0.01172 0.4336 0.01172 0.1523 0.02344 0.2109 0.05859 0.2109 0.1641 0 0.03516 0 0.07031-0.03516 0.1875zm2.156-5.344c0.08203-0.3516 0.1055-0.375 0.5391-0.375h1.066c0.9727 0 1.793 0.5273 1.793 1.84 0 0.4922-0.1992 2.121-1.043 3.223-0.2812 0.3633-1.078 1.125-2.297 1.125h-1.125c-0.1406 0-0.1641 0-0.2227-0.01172-0.09375-0.01172-0.1289-0.02344-0.1289-0.1055 0-0.02344 0-0.04688 0.04688-0.2227z"/>
<path d="m16.75-5.555c0.07031-0.1289 0.07031-0.1523 0.07031-0.1992 0-0.1172-0.08203-0.1992-0.1992-0.1992-0.09375 0-0.1523 0.07031-0.2227 0.2109l-2.344 5.273-2.344-5.273c-0.07031-0.1992-0.1523-0.2109-0.2227-0.2109-0.1172 0-0.1992 0.08203-0.1992 0.1992 0 0.01172 0 0.03516 0.05859 0.1523l2.484 5.613c0.07031 0.1641 0.1289 0.2109 0.2227 0.2109 0.1289 0 0.1641-0.07031 0.2227-0.2109z"/>
<path d="m27.17-6.926c0-0.02344-0.02344-0.09375-0.1055-0.09375-0.03516 0-0.04687 0.01172-0.1523 0.1172l-0.7031 0.7617c-0.08203-0.1406-0.5391-0.8789-1.652-0.8789-2.215 0-4.453 2.203-4.453 4.512 0 1.641 1.172 2.73 2.695 2.73 0.8672 0 1.617-0.3984 2.145-0.8555 0.9375-0.8203 1.102-1.723 1.102-1.758 0-0.1055-0.1055-0.1055-0.1172-0.1055-0.05859 0-0.1172 0.02344-0.1289 0.1055-0.09375 0.293-0.3164 0.9961-1.008 1.57-0.6914 0.5625-1.312 0.7266-1.84 0.7266-0.8906 0-1.945-0.5156-1.945-2.062 0-0.5742 0.2109-2.191 1.207-3.352 0.6094-0.7031 1.535-1.207 2.426-1.207 1.02 0 1.605 0.7734 1.605 1.922 0 0.3984-0.03516 0.4102-0.03516 0.5039 0 0.1055 0.1172 0.1055 0.1523 0.1055 0.1289 0 0.1289-0.02344 0.1758-0.1992z"/>
<path d="m63.19-4.946c0-0.9844-0.9844-1.863-2.344-1.863h-3.516v0.3164h0.2344c0.7734 0 0.7852 0.1055 0.7852 0.4688v5.25c0 0.3516-0.01172 0.4688-0.7852 0.4688h-0.2344v0.3047c0.3516-0.03516 1.078-0.03516 1.465-0.03516 0.375 0 1.125 0 1.477 0.03516v-0.3047h-0.2461c-0.7617 0-0.7852-0.1172-0.7852-0.4688v-2.379h1.688c1.195 0 2.262-0.7969 2.262-1.793zm-1.02 0c0 0.457 0 1.535-1.582 1.535h-1.383v-2.684c0-0.3281 0.02344-0.3984 0.4922-0.3984h0.8906c1.582 0 1.582 1.055 1.582 1.547zm5.215 1.148c0-0.3164-0.3047-0.6094-0.7266-0.6094-0.7383 0-1.09 0.668-1.23 1.102v-1.102l-1.383 0.1172v0.3047c0.6914 0 0.7734 0.07031 0.7734 0.5625v2.66c0 0.457-0.1055 0.457-0.7734 0.457v0.3047l1.137-0.03516c0.3984 0 0.8672 0 1.266 0.03516v-0.3047h-0.2109c-0.7383 0-0.7617-0.1172-0.7617-0.4688v-1.535c0-0.9844 0.4219-1.875 1.184-1.875 0.05859 0 0.08203 0 0.1055 0.01172-0.03516 0.01172-0.2344 0.1289-0.2344 0.3867 0 0.2812 0.2109 0.4336 0.4336 0.4336 0.1758 0 0.4219-0.1289 0.4219-0.4453zm4.421 2.613c0-0.1055-0.08203-0.1172-0.1289-0.1172-0.09375 0-0.1172 0.05859-0.1289 0.1406-0.3516 1.02-1.254 1.02-1.348 1.02-0.5039 0-0.9023-0.293-1.125-0.668-0.3047-0.4805-0.3047-1.137-0.3047-1.488h2.789c0.2109 0 0.2461 0 0.2461-0.2109 0-0.9844-0.5391-1.957-1.781-1.957-1.16 0-2.074 1.031-2.074 2.273 0 1.336 1.043 2.297 2.191 2.297 1.219 0 1.664-1.102 1.664-1.289zm-0.6562-1.324h-2.367c0.05859-1.488 0.9023-1.734 1.242-1.734 1.02 0 1.125 1.348 1.125 1.734zm9.041 2.508v-0.3047c-0.5156 0-0.7617 0-0.7734-0.3047v-1.898c0-0.8555 0-1.172-0.3164-1.523-0.1289-0.1758-0.4688-0.375-1.043-0.375-0.832 0-1.277 0.5977-1.441 0.9844-0.1406-0.8672-0.8789-0.9844-1.324-0.9844-0.7266 0-1.195 0.4336-1.477 1.055v-1.055l-1.406 0.1172v0.3047c0.7031 0 0.7852 0.07031 0.7852 0.5625v2.66c0 0.457-0.1172 0.457-0.7852 0.457v0.3047l1.125-0.03516 1.113 0.03516v-0.3047c-0.6562 0-0.7734 0-0.7734-0.457v-1.828c0-1.031 0.7148-1.594 1.348-1.594 0.6211 0 0.7383 0.5391 0.7383 1.102v2.32c0 0.457-0.1172 0.457-0.7734 0.457v0.3047l1.125-0.03516 1.113 0.03516v-0.3047c-0.668 0-0.7852 0-0.7852-0.457v-1.828c0-1.031 0.7148-1.594 1.348-1.594 0.6328 0 0.7383 0.5391 0.7383 1.102v2.32c0 0.457-0.1055 0.457-0.7734 0.457v0.3047l1.125-0.03516zm2.663 0v-0.3047c-0.6562 0-0.7031-0.05859-0.7031-0.4453v-3.656l-1.395 0.1172v0.3047c0.6562 0 0.7383 0.05859 0.7383 0.5508v2.672c0 0.457-0.1055 0.457-0.7734 0.457v0.3047l1.102-0.03516c0.3398 0 0.6914 0.02344 1.031 0.03516zm-0.5508-6.012c0-0.2695-0.2227-0.5273-0.5273-0.5273-0.3398 0-0.5391 0.2695-0.5391 0.5273 0 0.2695 0.2344 0.5273 0.5273 0.5273 0.3398 0 0.5391-0.2812 0.5391-0.5273zm4.444 4.734c0-0.5273-0.293-0.8203-0.4219-0.9492-0.3281-0.3164-0.7148-0.3984-1.137-0.4688-0.5508-0.1172-1.219-0.2461-1.219-0.8203 0-0.3516 0.2578-0.7617 1.113-0.7617 1.102 0 1.148 0.9023 1.172 1.207 0 0.09375 0.1172 0.09375 0.1172 0.09375 0.1289 0 0.1289-0.04688 0.1289-0.2461v-0.9961c0-0.1758 0-0.2461-0.1172-0.2461-0.04687 0-0.07031 0-0.1992 0.1172-0.02344 0.04688-0.1289 0.1289-0.1641 0.1641-0.375-0.2812-0.7852-0.2812-0.9375-0.2812-1.219 0-1.594 0.668-1.594 1.23 0 0.3398 0.1641 0.6211 0.4336 0.8438 0.3164 0.2578 0.5977 0.3164 1.312 0.457 0.2227 0.03516 1.031 0.1992 1.031 0.9141 0 0.5156-0.3516 0.9141-1.125 0.9141-0.832 0-1.195-0.5742-1.383-1.418-0.03516-0.1289-0.03516-0.1758-0.1406-0.1758-0.1289 0-0.1289 0.07031-0.1289 0.2578v1.313c0 0.1641 0 0.2344 0.1055 0.2344 0.05859 0 0.07031 0 0.2578-0.1992 0.01172-0.01172 0.01172-0.03516 0.1992-0.2227 0.4336 0.4219 0.8789 0.4219 1.09 0.4219 1.148 0 1.605-0.668 1.605-1.383zm4.477 0.09375c0-0.1055-0.08203-0.1172-0.1289-0.1172-0.09375 0-0.1172 0.05859-0.1289 0.1406-0.3516 1.02-1.254 1.02-1.348 1.02-0.5039 0-0.9023-0.293-1.125-0.668-0.3047-0.4805-0.3047-1.137-0.3047-1.488h2.789c0.2109 0 0.2461 0 0.2461-0.2109 0-0.9844-0.5391-1.957-1.781-1.957-1.16 0-2.074 1.031-2.074 2.273 0 1.336 1.043 2.297 2.191 2.297 1.219 0 1.664-1.102 1.664-1.289zm-0.6562-1.324h-2.367c0.05859-1.488 0.9023-1.734 1.242-1.734 1.02 0 1.125 1.348 1.125 1.734z"/>
<path d="m-24.04 15.82c0.8086-0.2695 1.395-0.9727 1.395-1.758 0-0.8203-0.8789-1.371-1.84-1.371-1.008 0-1.758 0.5977-1.758 1.348 0 0.3398 0.2109 0.5273 0.5039 0.5273 0.3047 0 0.5039-0.2227 0.5039-0.5156 0-0.4922-0.4688-0.4922-0.6094-0.4922 0.3047-0.4922 0.9609-0.6211 1.324-0.6211 0.4102 0 0.9492 0.2227 0.9492 1.113 0 0.1289-0.01172 0.7031-0.2695 1.137-0.3047 0.4805-0.6445 0.5156-0.8906 0.5156-0.08203 0.01172-0.3164 0.03516-0.3867 0.03516-0.08203 0.01172-0.1523 0.02344-0.1523 0.1172 0 0.1172 0.07031 0.1172 0.2344 0.1172h0.4453c0.8086 0 1.184 0.668 1.184 1.652 0 1.348-0.6914 1.641-1.125 1.641-0.4336 0-1.172-0.1758-1.523-0.7617 0.3516 0.05859 0.6562-0.1641 0.6562-0.5391 0-0.3633-0.2695-0.5625-0.5625-0.5625-0.2344 0-0.5508 0.1406-0.5508 0.5742 0 0.9141 0.9258 1.57 2.004 1.57 1.219 0 2.121-0.9141 2.121-1.922 0-0.8203-0.6211-1.594-1.652-1.805z"/>
</g>
<path transform="matrix(1.333 0 0 -1.333 96 96)" d="m-46.81 14.03v19.32" fill="none" stroke="#000" stroke-miterlimit="10" stroke-width=".5669"/>
<g transform="matrix(1.333 0 0 1.333 42.55 68.71)" aria-label="¬BPremise
4">
<path d="m6.081-3.186c0-0.3281-0.02344-0.3633-0.3398-0.3633h-4.84c-0.1758 0-0.3516 0-0.3516 0.1992 0 0.1992 0.1758 0.1992 0.3516 0.1992h4.781v1.91c0 0.1758 0 0.3516 0.1992 0.3516 0.1992 0 0.1992-0.1758 0.1992-0.3516z"/>
<path d="m8.237-0.7721c-0.09375 0.3867-0.1172 0.4688-0.9023 0.4688-0.1758 0-0.2695 0-0.2695 0.1992 0 0.1055 0.08203 0.1055 0.2695 0.1055h3.551c1.57 0 2.754-1.172 2.754-2.156 0-0.7148-0.5859-1.289-1.547-1.395 1.031-0.1992 2.086-0.9375 2.086-1.875 0-0.7383-0.6562-1.383-1.852-1.383h-3.352c-0.1875 0-0.293 0-0.293 0.1992 0 0.1172 0.09375 0.1172 0.2812 0.1172 0.02344 0 0.2109 0 0.375 0.01172 0.1875 0.02344 0.2695 0.03516 0.2695 0.1641 0 0.03516-0.01172 0.07031-0.03516 0.1875zm1.5-2.871 0.6211-2.473c0.09375-0.3516 0.1055-0.375 0.5391-0.375h1.289c0.8672 0 1.078 0.5859 1.078 1.02 0 0.8789-0.8555 1.828-2.074 1.828zm-0.4453 3.34c-0.1406 0-0.1523 0-0.2227-0.01172-0.09375-0.01172-0.1289-0.02344-0.1289-0.1055 0-0.02344 0-0.04688 0.05859-0.2227l0.6797-2.777h1.887c0.9609 0 1.148 0.7266 1.148 1.16 0 0.9844-0.8906 1.957-2.062 1.957z"/>
<path d="m63.19-4.944c0-0.9844-0.9844-1.863-2.344-1.863h-3.516v0.3164h0.2344c0.7734 0 0.7852 0.1055 0.7852 0.4688v5.25c0 0.3516-0.01172 0.4688-0.7852 0.4688h-0.2344v0.3047c0.3516-0.03516 1.078-0.03516 1.465-0.03516 0.375 0 1.125 0 1.477 0.03516v-0.3047h-0.2461c-0.7617 0-0.7852-0.1172-0.7852-0.4688v-2.379h1.688c1.195 0 2.262-0.7969 2.262-1.793zm-1.02 0c0 0.457 0 1.535-1.582 1.535h-1.383v-2.684c0-0.3281 0.02344-0.3984 0.4922-0.3984h0.8906c1.582 0 1.582 1.055 1.582 1.547zm5.215 1.148c0-0.3164-0.3047-0.6094-0.7266-0.6094-0.7383 0-1.09 0.668-1.23 1.102v-1.102l-1.383 0.1172v0.3047c0.6914 0 0.7734 0.07031 0.7734 0.5625v2.66c0 0.457-0.1055 0.457-0.7734 0.457v0.3047l1.137-0.03516c0.3984 0 0.8672 0 1.266 0.03516v-0.3047h-0.2109c-0.7383 0-0.7617-0.1172-0.7617-0.4688v-1.535c0-0.9844 0.4219-1.875 1.184-1.875 0.05859 0 0.08203 0 0.1055 0.01172-0.03516 0.01172-0.2344 0.1289-0.2344 0.3867 0 0.2812 0.2109 0.4336 0.4336 0.4336 0.1758 0 0.4219-0.1289 0.4219-0.4453zm4.421 2.613c0-0.1055-0.08203-0.1172-0.1289-0.1172-0.09375 0-0.1172 0.05859-0.1289 0.1406-0.3516 1.02-1.254 1.02-1.348 1.02-0.5039 0-0.9023-0.293-1.125-0.668-0.3047-0.4805-0.3047-1.137-0.3047-1.488h2.789c0.2109 0 0.2461 0 0.2461-0.2109 0-0.9844-0.5391-1.957-1.781-1.957-1.16 0-2.074 1.031-2.074 2.273 0 1.336 1.043 2.297 2.191 2.297 1.219 0 1.664-1.102 1.664-1.289zm-0.6562-1.324h-2.367c0.05859-1.488 0.9023-1.734 1.242-1.734 1.02 0 1.125 1.348 1.125 1.734zm9.041 2.508v-0.3047c-0.5156 0-0.7617 0-0.7734-0.3047v-1.898c0-0.8555 0-1.172-0.3164-1.523-0.1289-0.1758-0.4688-0.375-1.043-0.375-0.832 0-1.277 0.5977-1.441 0.9844-0.1406-0.8672-0.8789-0.9844-1.324-0.9844-0.7266 0-1.195 0.4336-1.477 1.055v-1.055l-1.406 0.1172v0.3047c0.7031 0 0.7852 0.07031 0.7852 0.5625v2.66c0 0.457-0.1172 0.457-0.7852 0.457v0.3047l1.125-0.03516 1.113 0.03516v-0.3047c-0.6562 0-0.7734 0-0.7734-0.457v-1.828c0-1.031 0.7148-1.594 1.348-1.594 0.6211 0 0.7383 0.5391 0.7383 1.102v2.32c0 0.457-0.1172 0.457-0.7734 0.457v0.3047l1.125-0.03516 1.113 0.03516v-0.3047c-0.668 0-0.7852 0-0.7852-0.457v-1.828c0-1.031 0.7148-1.594 1.348-1.594 0.6328 0 0.7383 0.5391 0.7383 1.102v2.32c0 0.457-0.1055 0.457-0.7734 0.457v0.3047l1.125-0.03516zm2.663 0v-0.3047c-0.6562 0-0.7031-0.05859-0.7031-0.4453v-3.656l-1.395 0.1172v0.3047c0.6562 0 0.7383 0.05859 0.7383 0.5508v2.672c0 0.457-0.1055 0.457-0.7734 0.457v0.3047l1.102-0.03516c0.3398 0 0.6914 0.02344 1.031 0.03516zm-0.5508-6.012c0-0.2695-0.2227-0.5273-0.5273-0.5273-0.3398 0-0.5391 0.2695-0.5391 0.5273 0 0.2695 0.2344 0.5273 0.5273 0.5273 0.3398 0 0.5391-0.2812 0.5391-0.5273zm4.444 4.734c0-0.5273-0.293-0.8203-0.4219-0.9492-0.3281-0.3164-0.7148-0.3984-1.137-0.4688-0.5508-0.1172-1.219-0.2461-1.219-0.8203 0-0.3516 0.2578-0.7617 1.113-0.7617 1.102 0 1.148 0.9023 1.172 1.207 0 0.09375 0.1172 0.09375 0.1172 0.09375 0.1289 0 0.1289-0.04688 0.1289-0.2461v-0.9961c0-0.1758 0-0.2461-0.1172-0.2461-0.04687 0-0.07031 0-0.1992 0.1172-0.02344 0.04688-0.1289 0.1289-0.1641 0.1641-0.375-0.2812-0.7852-0.2812-0.9375-0.2812-1.219 0-1.594 0.668-1.594 1.23 0 0.3398 0.1641 0.6211 0.4336 0.8438 0.3164 0.2578 0.5977 0.3164 1.312 0.457 0.2227 0.03516 1.031 0.1992 1.031 0.9141 0 0.5156-0.3516 0.9141-1.125 0.9141-0.832 0-1.195-0.5742-1.383-1.418-0.03516-0.1289-0.03516-0.1758-0.1406-0.1758-0.1289 0-0.1289 0.07031-0.1289 0.2578v1.312c0 0.1641 0 0.2344 0.1055 0.2344 0.05859 0 0.07031 0 0.2578-0.1992 0.01172-0.01172 0.01172-0.03516 0.1992-0.2227 0.4336 0.4219 0.8789 0.4219 1.09 0.4219 1.148 0 1.605-0.668 1.605-1.383zm4.477 0.09375c0-0.1055-0.08203-0.1172-0.1289-0.1172-0.09375 0-0.1172 0.05859-0.1289 0.1406-0.3516 1.02-1.254 1.02-1.348 1.02-0.5039 0-0.9023-0.293-1.125-0.668-0.3047-0.4805-0.3047-1.137-0.3047-1.488h2.789c0.2109 0 0.2461 0 0.2461-0.2109 0-0.9844-0.5391-1.957-1.781-1.957-1.16 0-2.074 1.031-2.074 2.273 0 1.336 1.043 2.297 2.191 2.297 1.219 0 1.664-1.102 1.664-1.289zm-0.6562-1.324h-2.367c0.05859-1.488 0.9023-1.734 1.242-1.734 1.02 0 1.125 1.348 1.125 1.734z"/>
<path d="m-24 17.68v0.8672c0 0.3516-0.02344 0.4688-0.7617 0.4688h-0.2109v0.3047c0.4102-0.03516 0.9375-0.03516 1.348-0.03516 0.4219 0 0.9492 0 1.359 0.03516v-0.3047h-0.2109c-0.7383 0-0.7617-0.1172-0.7617-0.4688v-0.8672h0.9961v-0.3164h-0.9961v-4.523c0-0.1992 0-0.2578-0.1523-0.2578-0.09375 0-0.1172 0-0.1992 0.1172l-3.059 4.664v0.3164zm0.05859-0.3164h-2.426l2.426-3.715z"/>
</g>
<path transform="matrix(1.333 0 0 -1.333 96 96)" d="m-46.81-5.29v19.32" fill="none" stroke="#000" stroke-miterlimit="10" stroke-width=".5669"/>
<path transform="matrix(1.333 0 0 -1.333 96 96)" d="m-46.53-5.007h44.96" fill="none" stroke="#000" stroke-miterlimit="10" stroke-width=".5669"/>
<g transform="matrix(1.333 0 0 1.333 42.55 94.47)" aria-label="D→BPremise
5">
<path d="m1.581-0.7733c-0.09375 0.3867-0.1172 0.4688-0.9023 0.4688-0.1758 0-0.2812 0-0.2812 0.1875 0 0.1172 0.09375 0.1172 0.2812 0.1172h3.293c2.074 0 4.031-2.098 4.031-4.289 0-1.395-0.8438-2.52-2.332-2.52h-3.352c-0.1875 0-0.293 0-0.293 0.1992 0 0.1172 0.08203 0.1172 0.2812 0.1172 0.1289 0 0.3164 0.01172 0.4336 0.01172 0.1523 0.02344 0.2109 0.05859 0.2109 0.1641 0 0.03516 0 0.07031-0.03516 0.1875zm2.156-5.344c0.08203-0.3516 0.1055-0.375 0.5391-0.375h1.066c0.9727 0 1.793 0.5273 1.793 1.84 0 0.4922-0.1992 2.121-1.043 3.223-0.2812 0.3633-1.078 1.125-2.297 1.125h-1.125c-0.1406 0-0.1641 0-0.2227-0.01172-0.09375-0.01172-0.1289-0.02344-0.1289-0.1055 0-0.02344 0-0.04688 0.04688-0.2227z"/>
<path d="m19.6-2.297c-0.5508 0.4219-0.8203 0.832-0.9023 0.9609-0.4453 0.6914-0.5273 1.312-0.5273 1.324 0 0.1172 0.1289 0.1172 0.1992 0.1172 0.1758 0 0.1875-0.01172 0.2227-0.1992 0.2344-0.9727 0.8203-1.805 1.945-2.262 0.1172-0.04688 0.1523-0.07031 0.1523-0.1406 0-0.05859-0.07031-0.09375-0.08203-0.1055-0.4453-0.1641-1.641-0.668-2.027-2.344-0.02344-0.1172-0.03516-0.1406-0.2109-0.1406-0.07031 0-0.1992 0-0.1992 0.1172 0 0.02344 0.09375 0.6445 0.5156 1.312 0.1992 0.3047 0.4805 0.6445 0.9141 0.9609h-7.406c-0.1758 0-0.3516 0-0.3516 0.1992 0 0.1992 0.1758 0.1992 0.3516 0.1992z"/>
<path d="m25.62-0.7733c-0.09375 0.3867-0.1172 0.4688-0.9023 0.4688-0.1758 0-0.2695 0-0.2695 0.1992 0 0.1055 0.08203 0.1055 0.2695 0.1055h3.551c1.57 0 2.754-1.172 2.754-2.156 0-0.7148-0.5859-1.289-1.547-1.395 1.031-0.1992 2.086-0.9375 2.086-1.875 0-0.7383-0.6562-1.383-1.852-1.383h-3.352c-0.1875 0-0.293 0-0.293 0.1992 0 0.1172 0.09375 0.1172 0.2812 0.1172 0.02344 0 0.2109 0 0.375 0.01172 0.1875 0.02344 0.2695 0.03516 0.2695 0.1641 0 0.03516-0.01172 0.07031-0.03516 0.1875zm1.5-2.871 0.6211-2.473c0.09375-0.3516 0.1055-0.375 0.5391-0.375h1.289c0.8672 0 1.078 0.5859 1.078 1.02 0 0.8789-0.8555 1.828-2.074 1.828zm-0.4453 3.34c-0.1406 0-0.1523 0-0.2227-0.01172-0.09375-0.01172-0.1289-0.02344-0.1289-0.1055 0-0.02344 0-0.04688 0.05859-0.2227l0.6797-2.777h1.887c0.9609 0 1.148 0.7266 1.148 1.16 0 0.9844-0.8906 1.957-2.062 1.957z"/>
<path d="m63.19-4.945c0-0.9844-0.9844-1.863-2.344-1.863h-3.516v0.3164h0.2344c0.7734 0 0.7852 0.1055 0.7852 0.4688v5.25c0 0.3516-0.01172 0.4688-0.7852 0.4688h-0.2344v0.3047c0.3516-0.03516 1.078-0.03516 1.465-0.03516 0.375 0 1.125 0 1.477 0.03516v-0.3047h-0.2461c-0.7617 0-0.7852-0.1172-0.7852-0.4688v-2.379h1.688c1.195 0 2.262-0.7969 2.262-1.793zm-1.02 0c0 0.457 0 1.535-1.582 1.535h-1.383v-2.684c0-0.3281 0.02344-0.3984 0.4922-0.3984h0.8906c1.582 0 1.582 1.055 1.582 1.547zm5.215 1.148c0-0.3164-0.3047-0.6094-0.7266-0.6094-0.7383 0-1.09 0.668-1.23 1.102v-1.102l-1.383 0.1172v0.3047c0.6914 0 0.7734 0.07031 0.7734 0.5625v2.66c0 0.457-0.1055 0.457-0.7734 0.457v0.3047l1.137-0.03516c0.3984 0 0.8672 0 1.266 0.03516v-0.3047h-0.2109c-0.7383 0-0.7617-0.1172-0.7617-0.4688v-1.535c0-0.9844 0.4219-1.875 1.184-1.875 0.05859 0 0.08203 0 0.1055 0.01172-0.03516 0.01172-0.2344 0.1289-0.2344 0.3867 0 0.2812 0.2109 0.4336 0.4336 0.4336 0.1758 0 0.4219-0.1289 0.4219-0.4453zm4.421 2.613c0-0.1055-0.08203-0.1172-0.1289-0.1172-0.09375 0-0.1172 0.05859-0.1289 0.1406-0.3516 1.02-1.254 1.02-1.348 1.02-0.5039 0-0.9023-0.293-1.125-0.668-0.3047-0.4805-0.3047-1.137-0.3047-1.488h2.789c0.2109 0 0.2461 0 0.2461-0.2109 0-0.9844-0.5391-1.957-1.781-1.957-1.16 0-2.074 1.031-2.074 2.273 0 1.336 1.043 2.297 2.191 2.297 1.219 0 1.664-1.102 1.664-1.289zm-0.6562-1.324h-2.367c0.05859-1.488 0.9023-1.734 1.242-1.734 1.02 0 1.125 1.348 1.125 1.734zm9.041 2.508v-0.3047c-0.5156 0-0.7617 0-0.7734-0.3047v-1.898c0-0.8555 0-1.172-0.3164-1.523-0.1289-0.1758-0.4688-0.375-1.043-0.375-0.832 0-1.277 0.5977-1.441 0.9844-0.1406-0.8672-0.8789-0.9844-1.324-0.9844-0.7266 0-1.195 0.4336-1.477 1.055v-1.055l-1.406 0.1172v0.3047c0.7031 0 0.7852 0.07031 0.7852 0.5625v2.66c0 0.457-0.1172 0.457-0.7852 0.457v0.3047l1.125-0.03516 1.113 0.03516v-0.3047c-0.6562 0-0.7734 0-0.7734-0.457v-1.828c0-1.031 0.7148-1.594 1.348-1.594 0.6211 0 0.7383 0.5391 0.7383 1.102v2.32c0 0.457-0.1172 0.457-0.7734 0.457v0.3047l1.125-0.03516 1.113 0.03516v-0.3047c-0.668 0-0.7852 0-0.7852-0.457v-1.828c0-1.031 0.7148-1.594 1.348-1.594 0.6328 0 0.7383 0.5391 0.7383 1.102v2.32c0 0.457-0.1055 0.457-0.7734 0.457v0.3047l1.125-0.03516zm2.663 0v-0.3047c-0.6562 0-0.7031-0.05859-0.7031-0.4453v-3.656l-1.395 0.1172v0.3047c0.6562 0 0.7383 0.05859 0.7383 0.5508v2.672c0 0.457-0.1055 0.457-0.7734 0.457v0.3047l1.102-0.03516c0.3398 0 0.6914 0.02344 1.031 0.03516zm-0.5508-6.012c0-0.2695-0.2227-0.5273-0.5273-0.5273-0.3398 0-0.5391 0.2695-0.5391 0.5273 0 0.2695 0.2344 0.5273 0.5273 0.5273 0.3398 0 0.5391-0.2812 0.5391-0.5273zm4.444 4.734c0-0.5273-0.293-0.8203-0.4219-0.9492-0.3281-0.3164-0.7148-0.3984-1.137-0.4688-0.5508-0.1172-1.219-0.2461-1.219-0.8203 0-0.3516 0.2578-0.7617 1.113-0.7617 1.102 0 1.148 0.9023 1.172 1.207 0 0.09375 0.1172 0.09375 0.1172 0.09375 0.1289 0 0.1289-0.04688 0.1289-0.2461v-0.9961c0-0.1758 0-0.2461-0.1172-0.2461-0.04687 0-0.07031 0-0.1992 0.1172-0.02344 0.04688-0.1289 0.1289-0.1641 0.1641-0.375-0.2812-0.7852-0.2812-0.9375-0.2812-1.219 0-1.594 0.668-1.594 1.23 0 0.3398 0.1641 0.6211 0.4336 0.8438 0.3164 0.2578 0.5977 0.3164 1.312 0.457 0.2227 0.03516 1.031 0.1992 1.031 0.9141 0 0.5156-0.3516 0.9141-1.125 0.9141-0.832 0-1.195-0.5742-1.383-1.418-0.03516-0.1289-0.03516-0.1758-0.1406-0.1758-0.1289 0-0.1289 0.07031-0.1289 0.2578v1.312c0 0.1641 0 0.2344 0.1055 0.2344 0.05859 0 0.07031 0 0.2578-0.1992 0.01172-0.01172 0.01172-0.03516 0.1992-0.2227 0.4336 0.4219 0.8789 0.4219 1.09 0.4219 1.148 0 1.605-0.668 1.605-1.383zm4.477 0.09375c0-0.1055-0.08203-0.1172-0.1289-0.1172-0.09375 0-0.1172 0.05859-0.1289 0.1406-0.3516 1.02-1.254 1.02-1.348 1.02-0.5039 0-0.9023-0.293-1.125-0.668-0.3047-0.4805-0.3047-1.137-0.3047-1.488h2.789c0.2109 0 0.2461 0 0.2461-0.2109 0-0.9844-0.5391-1.957-1.781-1.957-1.16 0-2.074 1.031-2.074 2.273 0 1.336 1.043 2.297 2.191 2.297 1.219 0 1.664-1.102 1.664-1.289zm-0.6562-1.324h-2.367c0.05859-1.488 0.9023-1.734 1.242-1.734 1.02 0 1.125 1.348 1.125 1.734z"/>
<path d="m-22.46 17.32c0-1.184-0.8203-2.18-1.898-2.18-0.4805 0-0.9023 0.1641-1.266 0.5039v-1.934c0.1992 0.05859 0.5273 0.1289 0.8438 0.1289 1.23 0 1.934-0.9141 1.934-1.043 0-0.05859-0.03516-0.1055-0.1055-0.1055-0.01172 0-0.03516 0-0.08203 0.02344-0.1992 0.09375-0.6797 0.293-1.348 0.293-0.3984 0-0.8555-0.07031-1.324-0.2812-0.08203-0.02344-0.1055-0.02344-0.1289-0.02344-0.09375 0-0.09375 0.08203-0.09375 0.2344v2.953c0 0.1758 0 0.2578 0.1406 0.2578 0.07031 0 0.08203-0.03516 0.1289-0.09375 0.1055-0.1523 0.4805-0.6914 1.277-0.6914 0.5273 0 0.7734 0.457 0.8555 0.6328 0.1523 0.375 0.1758 0.7617 0.1758 1.254 0 0.3516 0 0.9492-0.2344 1.371-0.2461 0.3867-0.6094 0.6445-1.066 0.6445-0.7266 0-1.301-0.5273-1.465-1.113 0.02344 0.01172 0.05859 0.01172 0.1641 0.01172 0.3281 0 0.5039-0.2461 0.5039-0.4805 0-0.2461-0.1758-0.4922-0.5039-0.4922-0.1406 0-0.4805 0.07031-0.4805 0.5273 0 0.8555 0.6797 1.828 1.793 1.828 1.16 0 2.18-0.9609 2.18-2.227z"/>
</g>
<path transform="matrix(1.333 0 0 -1.333 96 96)" d="m-46.81-24.61v19.32" fill="none" stroke="#000" stroke-miterlimit="10" stroke-width=".5669"/>
<g transform="matrix(1.333 0 0 1.333 42.55 120.2)" aria-label="¬CMT,1,3
6">
<path d="m6.081-3.189c0-0.3281-0.02344-0.3633-0.3398-0.3633h-4.84c-0.1758 0-0.3516 0-0.3516 0.1992 0 0.1992 0.1758 0.1992 0.3516 0.1992h4.781v1.91c0 0.1758 0 0.3516 0.1992 0.3516 0.1992 0 0.1992-0.1758 0.1992-0.3516z"/>
<path d="m14.21-6.927c0-0.02344-0.02344-0.09375-0.1055-0.09375-0.03516 0-0.04687 0.01172-0.1523 0.1172l-0.7031 0.7617c-0.08203-0.1406-0.5391-0.8789-1.652-0.8789-2.215 0-4.453 2.203-4.453 4.512 0 1.641 1.172 2.73 2.695 2.73 0.8672 0 1.617-0.3984 2.145-0.8555 0.9375-0.8203 1.102-1.723 1.102-1.758 0-0.1055-0.1055-0.1055-0.1172-0.1055-0.05859 0-0.1172 0.02344-0.1289 0.1055-0.09375 0.293-0.3164 0.9961-1.008 1.57-0.6914 0.5625-1.312 0.7266-1.84 0.7266-0.8906 0-1.945-0.5156-1.945-2.062 0-0.5742 0.2109-2.191 1.207-3.352 0.6094-0.7031 1.535-1.207 2.426-1.207 1.02 0 1.605 0.7734 1.605 1.922 0 0.3984-0.03516 0.4102-0.03516 0.5039 0 0.1055 0.1172 0.1055 0.1523 0.1055 0.1289 0 0.1289-0.02344 0.1758-0.1992z"/>
<path d="m65.74-0.001118v-0.3047h-0.2344c-0.7734 0-0.7852-0.1172-0.7852-0.4688v-5.25c0-0.3633 0.01172-0.4688 0.7852-0.4688h0.2344v-0.3164h-1.676c-0.2695 0-0.2695 0.01172-0.3398 0.1992l-2.18 5.602-2.156-5.578c-0.09375-0.2227-0.1172-0.2227-0.3516-0.2227h-1.688v0.3164h0.2461c0.7617 0 0.7852 0.1055 0.7852 0.4688v4.98c0 0.2695 0 0.7383-1.031 0.7383v0.3047l1.172-0.03516 1.16 0.03516v-0.3047c-1.02 0-1.02-0.4688-1.02-0.7383v-5.367h0.01172l2.402 6.188c0.04687 0.1289 0.09375 0.2227 0.1992 0.2227s0.1289-0.08203 0.1758-0.1875l2.449-6.305h0.01172v5.719c0 0.3516-0.02344 0.4688-0.7852 0.4688h-0.2461v0.3047c0.375-0.03516 1.043-0.03516 1.441-0.03516 0.3867 0 1.055 0 1.418 0.03516zm7.204-4.5-0.1875-2.238h-6.082l-0.1875 2.238h0.2461c0.1406-1.605 0.293-1.934 1.793-1.934 0.1758 0 0.4336 0 0.5391 0.02344 0.2109 0.03516 0.2109 0.1406 0.2109 0.375v5.25c0 0.3398 0 0.4805-1.055 0.4805h-0.3984v0.3047c0.4102-0.03516 1.43-0.03516 1.887-0.03516 0.457 0 1.488 0 1.898 0.03516v-0.3047h-0.3984c-1.055 0-1.055-0.1406-1.055-0.4805v-5.25c0-0.1992 0-0.3398 0.1875-0.375 0.1055-0.02344 0.375-0.02344 0.5625-0.02344 1.5 0 1.652 0.3281 1.793 1.934zm2.399 4.488c0-0.6328-0.2461-1.043-0.6445-1.043-0.3516 0-0.5273 0.2695-0.5273 0.5273s0.1758 0.5273 0.5273 0.5273c0.1523 0 0.293-0.05859 0.3984-0.1641 0.02344 0.7969-0.2578 1.395-0.6914 1.863-0.05859 0.05859-0.07031 0.07031-0.07031 0.1172 0 0.07031 0.04687 0.1055 0.09375 0.1055 0.1172 0 0.9141-0.7852 0.9141-1.934z"/>
<path d="m82.33-6.376c0-0.2344 0-0.2578-0.2344-0.2578-0.6094 0.6328-1.488 0.6328-1.805 0.6328v0.3164c0.1992 0 0.7852 0 1.301-0.2578v5.156c0 0.3516-0.03516 0.4805-0.9258 0.4805h-0.3164v0.3047c0.3516-0.03516 1.207-0.03516 1.605-0.03516 0.3984 0 1.266 0 1.617 0.03516v-0.3047h-0.3164c-0.9023 0-0.9258-0.1172-0.9258-0.4805z"/>
<path d="m86.41-0.01284c0-0.6328-0.2461-1.043-0.6445-1.043-0.3516 0-0.5273 0.2695-0.5273 0.5273s0.1758 0.5273 0.5273 0.5273c0.1523 0 0.293-0.05859 0.3984-0.1641 0.02344 0.7969-0.2578 1.395-0.6914 1.863-0.05859 0.05859-0.07031 0.07031-0.07031 0.1172 0 0.07031 0.04687 0.1055 0.09375 0.1055 0.1172 0 0.9141-0.7852 0.9141-1.934z"/>
<path d="m93.36-3.505c0.8086-0.2695 1.395-0.9727 1.395-1.758 0-0.8203-0.8789-1.371-1.84-1.371-1.008 0-1.758 0.5977-1.758 1.348 0 0.3398 0.2109 0.5273 0.5039 0.5273 0.3047 0 0.5039-0.2227 0.5039-0.5156 0-0.4922-0.4688-0.4922-0.6094-0.4922 0.3047-0.4922 0.9609-0.6211 1.324-0.6211 0.4102 0 0.9492 0.2227 0.9492 1.113 0 0.1289-0.01172 0.7031-0.2695 1.137-0.3047 0.4805-0.6445 0.5156-0.8906 0.5156-0.08203 0.01172-0.3164 0.03516-0.3867 0.03516-0.08203 0.01172-0.1523 0.02344-0.1523 0.1172 0 0.1172 0.07031 0.1172 0.2344 0.1172h0.4453c0.8086 0 1.184 0.668 1.184 1.652 0 1.348-0.6914 1.641-1.125 1.641-0.4336 0-1.172-0.1758-1.523-0.7617 0.3516 0.05859 0.6562-0.1641 0.6562-0.5391 0-0.3633-0.2695-0.5625-0.5625-0.5625-0.2344 0-0.5508 0.1406-0.5508 0.5742 0 0.9141 0.9258 1.57 2.004 1.57 1.219 0 2.121-0.9141 2.121-1.922 0-0.8203-0.6211-1.594-1.652-1.805zm-119 19.56v-0.2344c0-2.52 1.242-2.883 1.746-2.883 0.2344 0 0.6562 0.05859 0.8789 0.3984-0.1523 0-0.5508 0-0.5508 0.4453 0 0.3164 0.2344 0.457 0.457 0.457 0.1641 0 0.457-0.08203 0.457-0.4688 0-0.5977-0.4336-1.078-1.266-1.078-1.277 0-2.613 1.289-2.613 3.48 0 2.66 1.148 3.375 2.074 3.375 1.113 0 2.051-0.9375 2.051-2.25 0-1.266-0.8789-2.227-1.992-2.227-0.668 0-1.043 0.5039-1.242 0.9844zm1.184 3.211c-0.6211 0-0.9258-0.5977-0.9844-0.75-0.1758-0.4688-0.1758-1.266-0.1758-1.441 0-0.7734 0.3164-1.77 1.219-1.77 0.1523 0 0.6094 0 0.9258 0.6094 0.1758 0.375 0.1758 0.8789 0.1758 1.371 0 0.4805 0 0.9727-0.1641 1.336-0.3047 0.5977-0.7617 0.6445-0.9961 0.6445z"/>
</g>
<path transform="matrix(1.333 0 0 -1.333 96 96)" d="m-46.81-43.94v19.32" fill="none" stroke="#000" stroke-miterlimit="10" stroke-width=".5669"/>
<g transform="matrix(1.333 0 0 1.333 42.55 146)" aria-label="¬DMT,4,3
7">
<path d="m6.081-3.187c0-0.3281-0.02344-0.3633-0.3398-0.3633h-4.84c-0.1758 0-0.3516 0-0.3516 0.1992 0 0.1992 0.1758 0.1992 0.3516 0.1992h4.781v1.91c0 0.1758 0 0.3516 0.1992 0.3516 0.1992 0 0.1992-0.1758 0.1992-0.3516z"/>
<path d="m8.225-0.7729c-0.09375 0.3867-0.1172 0.4688-0.9023 0.4688-0.1758 0-0.2812 0-0.2812 0.1875 0 0.1172 0.09375 0.1172 0.2812 0.1172h3.293c2.074 0 4.031-2.098 4.031-4.289 0-1.395-0.8438-2.52-2.332-2.52h-3.352c-0.1875 0-0.293 0-0.293 0.1992 0 0.1172 0.08203 0.1172 0.2812 0.1172 0.1289 0 0.3164 0.01172 0.4336 0.01172 0.1523 0.02344 0.2109 0.05859 0.2109 0.1641 0 0.03516 0 0.07031-0.03516 0.1875zm2.156-5.344c0.08203-0.3516 0.1055-0.375 0.5391-0.375h1.066c0.9727 0 1.793 0.5273 1.793 1.84 0 0.4922-0.1992 2.121-1.043 3.223-0.2812 0.3633-1.078 1.125-2.297 1.125h-1.125c-0.1406 0-0.1641 0-0.2227-0.01172-0.09375-0.01172-0.1289-0.02344-0.1289-0.1055 0-0.02344 0-0.04688 0.04688-0.2227z"/>
<path d="m65.74 5.703e-4v-0.3047h-0.2344c-0.7734 0-0.7852-0.1172-0.7852-0.4688v-5.25c0-0.3633 0.01172-0.4688 0.7852-0.4688h0.2344v-0.3164h-1.676c-0.2695 0-0.2695 0.01172-0.3398 0.1992l-2.18 5.602-2.156-5.578c-0.09375-0.2227-0.1172-0.2227-0.3516-0.2227h-1.688v0.3164h0.2461c0.7617 0 0.7852 0.1055 0.7852 0.4688v4.98c0 0.2695 0 0.7383-1.031 0.7383v0.3047l1.172-0.03516 1.16 0.03516v-0.3047c-1.02 0-1.02-0.4688-1.02-0.7383v-5.367h0.01172l2.402 6.187c0.04687 0.1289 0.09375 0.2227 0.1992 0.2227s0.1289-0.08203 0.1758-0.1875l2.449-6.305h0.01172v5.719c0 0.3516-0.02344 0.4688-0.7852 0.4688h-0.2461v0.3047c0.375-0.03516 1.043-0.03516 1.441-0.03516 0.3867 0 1.055 0 1.418 0.03516zm7.204-4.5-0.1875-2.238h-6.082l-0.1875 2.238h0.2461c0.1406-1.605 0.293-1.934 1.793-1.934 0.1758 0 0.4336 0 0.5391 0.02344 0.2109 0.03516 0.2109 0.1406 0.2109 0.375v5.25c0 0.3398 0 0.4805-1.055 0.4805h-0.3984v0.3047c0.4102-0.03516 1.43-0.03516 1.887-0.03516 0.457 0 1.488 0 1.898 0.03516v-0.3047h-0.3984c-1.055 0-1.055-0.1406-1.055-0.4805v-5.25c0-0.1992 0-0.3398 0.1875-0.375 0.1055-0.02344 0.375-0.02344 0.5625-0.02344 1.5 0 1.652 0.3281 1.793 1.934zm2.399 4.488c0-0.6328-0.2461-1.043-0.6445-1.043-0.3516 0-0.5273 0.2695-0.5273 0.5273s0.1758 0.5273 0.5273 0.5273c0.1523 0 0.293-0.05859 0.3984-0.1641 0.02344 0.7969-0.2578 1.395-0.6914 1.863-0.05859 0.05859-0.07031 0.07031-0.07031 0.1172 0 0.07031 0.04687 0.1055 0.09375 0.1055 0.1172 0 0.9141-0.7852 0.9141-1.934z"/>
<path d="m82.33-1.64v0.8672c0 0.3516-0.02344 0.4688-0.7617 0.4688h-0.2109v0.3047c0.4102-0.03516 0.9375-0.03516 1.348-0.03516 0.4219 0 0.9492 0 1.359 0.03516v-0.3047h-0.2109c-0.7383 0-0.7617-0.1172-0.7617-0.4688v-0.8672h0.9961v-0.3164h-0.9961v-4.523c0-0.1992 0-0.2578-0.1523-0.2578-0.09375 0-0.1172 0-0.1992 0.1172l-3.059 4.664v0.3164zm0.05859-0.3164h-2.426l2.426-3.715z"/>
<path d="m86.41-0.01115c0-0.6328-0.2461-1.043-0.6445-1.043-0.3516 0-0.5273 0.2695-0.5273 0.5273s0.1758 0.5273 0.5273 0.5273c0.1523 0 0.293-0.05859 0.3984-0.1641 0.02344 0.7969-0.2578 1.395-0.6914 1.863-0.05859 0.05859-0.07031 0.07031-0.07031 0.1172 0 0.07031 0.04687 0.1055 0.09375 0.1055 0.1172 0 0.9141-0.7852 0.9141-1.934z"/>
<path d="m93.36-3.503c0.8086-0.2695 1.395-0.9727 1.395-1.758 0-0.8203-0.8789-1.371-1.84-1.371-1.008 0-1.758 0.5977-1.758 1.348 0 0.3398 0.2109 0.5273 0.5039 0.5273 0.3047 0 0.5039-0.2227 0.5039-0.5156 0-0.4922-0.4688-0.4922-0.6094-0.4922 0.3047-0.4922 0.9609-0.6211 1.324-0.6211 0.4102 0 0.9492 0.2227 0.9492 1.113 0 0.1289-0.01172 0.7031-0.2695 1.137-0.3047 0.4805-0.6445 0.5156-0.8906 0.5156-0.08203 0.01172-0.3164 0.03516-0.3867 0.03516-0.08203 0.01172-0.1523 0.02344-0.1523 0.1172 0 0.1172 0.07031 0.1172 0.2344 0.1172h0.4453c0.8086 0 1.184 0.668 1.184 1.652 0 1.348-0.6914 1.641-1.125 1.641-0.4336 0-1.172-0.1758-1.523-0.7617 0.3516 0.05859 0.6562-0.1641 0.6562-0.5391 0-0.3633-0.2695-0.5625-0.5625-0.5625-0.2344 0-0.5508 0.1406-0.5508 0.5742 0 0.9141 0.9258 1.57 2.004 1.57 1.219 0 2.121-0.9141 2.121-1.922 0-0.8203-0.6211-1.594-1.652-1.805zm-115.6 16.75c0.08203-0.1172 0.08203-0.1406 0.08203-0.3398h-2.414c-1.219 0-1.242-0.1289-1.277-0.3281h-0.2461l-0.3281 2.051h0.2461c0.02344-0.1523 0.1172-0.7852 0.2461-0.9023 0.07031-0.05859 0.8438-0.05859 0.9727-0.05859h2.062c-0.1055 0.1641-0.8906 1.242-1.113 1.57-0.8906 1.348-1.219 2.73-1.219 3.75 0 0.09375 0 0.5508 0.457 0.5508 0.457 0 0.457-0.457 0.457-0.5508v-0.5039c0-0.5508 0.02344-1.102 0.1055-1.641 0.04687-0.2227 0.1758-1.078 0.6211-1.699z"/>
</g>
<path transform="matrix(1.333 0 0 -1.333 96 96)" d="m-46.81-63.26v19.32" fill="none" stroke="#000" stroke-miterlimit="10" stroke-width=".5669"/>
<path transform="matrix(1.333 0 0 -1.333 96 96)" d="m-30.3-63.26v15.03" fill="none" stroke="#000" stroke-miterlimit="10" stroke-width=".5669"/>
<path transform="matrix(1.333 0 0 -1.333 96 96)" d="m-30.02-62.97h21.41" fill="none" stroke="#000" stroke-miterlimit="10" stroke-width=".5669"/>
<g transform="matrix(1.333 0 0 1.333 64.56 171.8)" aria-label="DAssume
8">
<path d="m1.582-0.7741c-0.09375 0.3867-0.1172 0.4688-0.9023 0.4688-0.1758 0-0.2812 0-0.2812 0.1875 0 0.1172 0.09375 0.1172 0.2812 0.1172h3.293c2.074 0 4.031-2.098 4.031-4.289 0-1.395-0.8438-2.52-2.332-2.52h-3.352c-0.1875 0-0.293 0-0.293 0.1992 0 0.1172 0.08203 0.1172 0.2812 0.1172 0.1289 0 0.3164 0.01172 0.4336 0.01172 0.1523 0.02344 0.2109 0.05859 0.2109 0.1641 0 0.03516 0 0.07031-0.03516 0.1875zm2.156-5.344c0.08203-0.3516 0.1055-0.375 0.5391-0.375h1.066c0.9727 0 1.793 0.5273 1.793 1.84 0 0.4922-0.1992 2.121-1.043 3.223-0.2812 0.3633-1.078 1.125-2.297 1.125h-1.125c-0.1406 0-0.1641 0-0.2227-0.01172-0.09375-0.01172-0.1289-0.02344-0.1289-0.1055 0-0.02344 0-0.04688 0.04688-0.2227z"/>
<path d="m47.61-6.706e-4v-0.3047h-0.1758c-0.5977 0-0.7383-0.07031-0.8438-0.3984l-2.156-6.234c-0.04687-0.1289-0.07031-0.1992-0.2227-0.1992-0.1641 0-0.1875 0.05859-0.2461 0.1992l-2.062 5.965c-0.1758 0.5039-0.5742 0.6562-1.113 0.668v0.3047l1.02-0.03516 1.148 0.03516v-0.3047c-0.5039 0-0.75-0.2578-0.75-0.5156 0-0.02344 0.01172-0.1289 0.02344-0.1406l0.457-1.312h2.461l0.5273 1.523c0.01172 0.04688 0.02344 0.1055 0.02344 0.1406 0 0.3047-0.5508 0.3047-0.8203 0.3047v0.3047c0.3516-0.03516 1.055-0.03516 1.43-0.03516zm-2.578-2.578h-2.238l1.113-3.234zm6.501 1.301c0-0.5273-0.293-0.8203-0.4219-0.9492-0.3281-0.3164-0.7148-0.3984-1.137-0.4688-0.5508-0.1172-1.219-0.2461-1.219-0.8203 0-0.3516 0.2578-0.7617 1.113-0.7617 1.102 0 1.148 0.9023 1.172 1.207 0 0.09375 0.1172 0.09375 0.1172 0.09375 0.1289 0 0.1289-0.04688 0.1289-0.2461v-0.9961c0-0.1758 0-0.2461-0.1172-0.2461-0.04687 0-0.07031 0-0.1992 0.1172-0.02344 0.04688-0.1289 0.1289-0.1641 0.1641-0.375-0.2812-0.7852-0.2812-0.9375-0.2812-1.219 0-1.594 0.668-1.594 1.23 0 0.3398 0.1641 0.6211 0.4336 0.8438 0.3164 0.2578 0.5977 0.3164 1.312 0.457 0.2227 0.03516 1.031 0.1992 1.031 0.9141 0 0.5156-0.3516 0.9141-1.125 0.9141-0.832 0-1.195-0.5742-1.383-1.418-0.03516-0.1289-0.03516-0.1758-0.1406-0.1758-0.1289 0-0.1289 0.07031-0.1289 0.2578v1.313c0 0.1641 0 0.2344 0.1055 0.2344 0.05859 0 0.07031 0 0.2578-0.1992 0.01172-0.01172 0.01172-0.03516 0.1992-0.2227 0.4336 0.4219 0.8789 0.4219 1.09 0.4219 1.148 0 1.605-0.668 1.605-1.383zm3.926 0c0-0.5273-0.293-0.8203-0.4219-0.9492-0.3281-0.3164-0.7148-0.3984-1.137-0.4688-0.5508-0.1172-1.219-0.2461-1.219-0.8203 0-0.3516 0.2578-0.7617 1.113-0.7617 1.102 0 1.148 0.9023 1.172 1.207 0 0.09375 0.1172 0.09375 0.1172 0.09375 0.1289 0 0.1289-0.04688 0.1289-0.2461v-0.9961c0-0.1758 0-0.2461-0.1172-0.2461-0.04687 0-0.07031 0-0.1992 0.1172-0.02344 0.04688-0.1289 0.1289-0.1641 0.1641-0.375-0.2812-0.7852-0.2812-0.9375-0.2812-1.219 0-1.594 0.668-1.594 1.23 0 0.3398 0.1641 0.6211 0.4336 0.8438 0.3164 0.2578 0.5977 0.3164 1.312 0.457 0.2227 0.03516 1.031 0.1992 1.031 0.9141 0 0.5156-0.3516 0.9141-1.125 0.9141-0.832 0-1.195-0.5742-1.383-1.418-0.03516-0.1289-0.03516-0.1758-0.1406-0.1758-0.1289 0-0.1289 0.07031-0.1289 0.2578v1.313c0 0.1641 0 0.2344 0.1055 0.2344 0.05859 0 0.07031 0 0.2578-0.1992 0.01172-0.01172 0.01172-0.03516 0.1992-0.2227 0.4336 0.4219 0.8789 0.4219 1.09 0.4219 1.148 0 1.605-0.668 1.605-1.383zm5.672 1.277v-0.3047c-0.7031 0-0.7852-0.07031-0.7852-0.5625v-3.539l-1.453 0.1172v0.3047c0.6914 0 0.7734 0.07031 0.7734 0.5625v1.77c0 0.8672-0.4805 1.547-1.207 1.547-0.832 0-0.8789-0.4688-0.8789-0.9961v-3.305l-1.465 0.1172v0.3047c0.7852 0 0.7852 0.03516 0.7852 0.9141v1.5c0 0.7734 0 1.676 1.512 1.676 0.5508 0 0.9961-0.2695 1.277-0.8906v0.8906zm8.303 0v-0.3047c-0.5156 0-0.7617 0-0.7734-0.3047v-1.898c0-0.8555 0-1.172-0.3164-1.523-0.1289-0.1758-0.4688-0.375-1.043-0.375-0.832 0-1.277 0.5977-1.441 0.9844-0.1406-0.8672-0.8789-0.9844-1.324-0.9844-0.7266 0-1.195 0.4336-1.477 1.055v-1.055l-1.406 0.1172v0.3047c0.7031 0 0.7852 0.07031 0.7852 0.5625v2.66c0 0.457-0.1172 0.457-0.7852 0.457v0.3047l1.125-0.03516 1.113 0.03516v-0.3047c-0.6562 0-0.7734 0-0.7734-0.457v-1.828c0-1.031 0.7148-1.594 1.348-1.594 0.6211 0 0.7383 0.5391 0.7383 1.102v2.32c0 0.457-0.1172 0.457-0.7734 0.457v0.3047l1.125-0.03516 1.113 0.03516v-0.3047c-0.668 0-0.7852 0-0.7852-0.457v-1.828c0-1.031 0.7148-1.594 1.348-1.594 0.6328 0 0.7383 0.5391 0.7383 1.102v2.32c0 0.457-0.1055 0.457-0.7734 0.457v0.3047l1.125-0.03516zm4.339-1.184c0-0.1055-0.08203-0.1172-0.1289-0.1172-0.09375 0-0.1172 0.05859-0.1289 0.1406-0.3516 1.02-1.254 1.02-1.348 1.02-0.5039 0-0.9023-0.293-1.125-0.668-0.3047-0.4805-0.3047-1.137-0.3047-1.488h2.789c0.2109 0 0.2461 0 0.2461-0.2109 0-0.9844-0.5391-1.957-1.781-1.957-1.16 0-2.074 1.031-2.074 2.273 0 1.336 1.043 2.297 2.191 2.297 1.219 0 1.664-1.102 1.664-1.289zm-0.6562-1.324h-2.367c0.05859-1.488 0.9023-1.734 1.242-1.734 1.02 0 1.125 1.348 1.125 1.734z"/>
<path d="m-41.81 14.78c-0.4688-0.3047-0.5039-0.6445-0.5039-0.8086 0-0.6094 0.6445-1.031 1.359-1.031 0.7266 0 1.359 0.5156 1.359 1.242 0 0.5625-0.3867 1.043-0.9844 1.395zm1.453 0.9375c0.7148-0.3633 1.207-0.8789 1.207-1.535 0-0.9258-0.8906-1.488-1.793-1.488-0.9961 0-1.805 0.7383-1.805 1.664 0 0.1758 0.01172 0.6211 0.4336 1.09 0.1055 0.1289 0.4805 0.375 0.7266 0.5391-0.5742 0.293-1.43 0.8438-1.43 1.84 0 1.055 1.008 1.723 2.062 1.723 1.125 0 2.062-0.832 2.062-1.898 0-0.3516-0.1055-0.8086-0.4805-1.219-0.1875-0.2109-0.3516-0.3164-0.9844-0.7148zm-0.9961 0.4219 1.219 0.7734c0.2812 0.1875 0.75 0.4922 0.75 1.102 0 0.7383-0.75 1.254-1.559 1.254-0.8672 0-1.582-0.6211-1.582-1.441 0-0.5859 0.3164-1.219 1.172-1.688z"/>
</g>
<path transform="matrix(1.333 0 0 -1.333 96 96)" d="m-46.81-82.58v19.32" fill="none" stroke="#000" stroke-miterlimit="10" stroke-width=".5669"/>
<path transform="matrix(1.333 0 0 -1.333 96 96)" d="m-30.3-82.58v19.32" fill="none" stroke="#000" stroke-miterlimit="10" stroke-width=".5669"/>
<g transform="matrix(1.333 0 0 1.333 64.56 197.5)" aria-label="⊥¬E,6,7
9">
<path d="m4.078-6.292c0-0.1875 0-0.3633-0.1992-0.3633-0.1992 0-0.1992 0.2109-0.1992 0.3633v5.895h-2.777c-0.1406 0-0.3516 0-0.3516 0.1992s0.2109 0.1992 0.3516 0.1992h5.953c0.1641 0 0.3516 0 0.3516-0.1992s-0.1875-0.1992-0.3516-0.1992h-2.777zm42.48 3.105c0-0.3281-0.02344-0.3633-0.3398-0.3633h-4.84c-0.1758 0-0.3516 0-0.3516 0.1992 0 0.1992 0.1758 0.1992 0.3516 0.1992h4.781v1.91c0 0.1758 0 0.3516 0.1992 0.3516s0.1992-0.1758 0.1992-0.3516z"/>
<path d="m53.61-2.565h-0.2461c-0.2461 1.535-0.4805 2.262-2.191 2.262h-1.324c-0.4688 0-0.4922-0.07031-0.4922-0.3984v-2.66h0.9023c0.9609 0 1.078 0.3164 1.078 1.16h0.2461v-2.637h-0.2461c0 0.8555-0.1172 1.16-1.078 1.16h-0.9023v-2.391c0-0.3281 0.02344-0.3984 0.4922-0.3984h1.289c1.523 0 1.793 0.5508 1.945 1.934h0.2461l-0.2695-2.238h-5.613v0.3047h0.2344c0.7734 0 0.7969 0.1172 0.7969 0.4688v5.227c0 0.3516-0.02344 0.4688-0.7969 0.4688h-0.2344v0.3047h5.754zm2.317 2.555c0-0.6328-0.2461-1.043-0.6445-1.043-0.3516 0-0.5273 0.2695-0.5273 0.5273s0.1758 0.5273 0.5273 0.5273c0.1523 0 0.293-0.05859 0.3984-0.1641 0.02344 0.7969-0.2578 1.395-0.6914 1.863-0.05859 0.05859-0.07031 0.07031-0.07031 0.1172 0 0.07031 0.04687 0.1055 0.09375 0.1055 0.1172 0 0.9141-0.7852 0.9141-1.934z"/>
<path d="m61.3-3.269v-0.2344c0-2.52 1.242-2.883 1.746-2.883 0.2344 0 0.6562 0.05859 0.8789 0.3984-0.1523 0-0.5508 0-0.5508 0.4453 0 0.3164 0.2344 0.457 0.457 0.457 0.1641 0 0.457-0.08203 0.457-0.4688 0-0.5977-0.4336-1.078-1.266-1.078-1.277 0-2.613 1.289-2.613 3.48 0 2.66 1.148 3.375 2.074 3.375 1.113 0 2.051-0.9375 2.051-2.25 0-1.266-0.8789-2.227-1.992-2.227-0.668 0-1.043 0.5039-1.242 0.9844zm1.184 3.211c-0.6211 0-0.9258-0.5977-0.9844-0.75-0.1758-0.4687-0.1758-1.266-0.1758-1.441 0-0.7734 0.3164-1.77 1.219-1.77 0.1523 0 0.6094 0 0.9258 0.6094 0.1758 0.375 0.1758 0.8789 0.1758 1.371 0 0.4805 0 0.9727-0.1641 1.336-0.3047 0.5977-0.7617 0.6445-0.9961 0.6445z"/>
<path d="m67-0.0107c0-0.6328-0.2461-1.043-0.6445-1.043-0.3516 0-0.5273 0.2695-0.5273 0.5273s0.1758 0.5273 0.5273 0.5273c0.1523 0 0.293-0.05859 0.3984-0.1641 0.02344 0.7969-0.2578 1.395-0.6914 1.863-0.05859 0.05859-0.07031 0.07031-0.07031 0.1172 0 0.07031 0.04687 0.1055 0.09375 0.1055 0.1172 0 0.9141-0.7852 0.9141-1.934z"/>
<path d="m75.81-6.069c0.08203-0.1172 0.08203-0.1406 0.08203-0.3398h-2.414c-1.219 0-1.242-0.1289-1.277-0.3281h-0.2461l-0.3281 2.051h0.2461c0.02344-0.1523 0.1172-0.7852 0.2461-0.9023 0.07031-0.05859 0.8438-0.05859 0.9727-0.05859h2.062c-0.1055 0.1641-0.8906 1.242-1.113 1.57-0.8906 1.348-1.219 2.73-1.219 3.75 0 0.09375 0 0.5508 0.457 0.5508s0.457-0.457 0.457-0.5508v-0.5039c0-0.5508 0.02344-1.102 0.1055-1.641 0.04687-0.2227 0.1758-1.078 0.6211-1.699zm-115.6 22.23v0.3164c0 2.332-1.031 2.789-1.617 2.789-0.1641 0-0.7031-0.02344-0.9727-0.3633 0.4336 0 0.5156-0.2812 0.5156-0.457 0-0.3047-0.2344-0.457-0.457-0.457-0.1641 0-0.457 0.09375-0.457 0.4805 0 0.668 0.5391 1.078 1.383 1.078 1.289 0 2.496-1.359 2.496-3.504 0-2.672-1.137-3.352-2.027-3.352-0.5508 0-1.031 0.1758-1.465 0.6211-0.4102 0.457-0.6328 0.8672-0.6328 1.617 0 1.242 0.8789 2.227 1.992 2.227 0.6094 0 1.008-0.4219 1.242-0.9961zm-1.23 0.7617c-0.1641 0-0.6211 0-0.9258-0.6211-0.1875-0.375-0.1875-0.8672-0.1875-1.359 0-0.5391 0-1.008 0.2109-1.371 0.2695-0.5039 0.6445-0.6328 0.9961-0.6328 0.457 0 0.7852 0.3398 0.9609 0.7852 0.1172 0.3164 0.1523 0.9492 0.1523 1.406 0 0.832-0.3398 1.793-1.207 1.793z"/>
</g>
<path transform="matrix(1.333 0 0 -1.333 96 96)" d="m-46.81-101.9v19.32" fill="none" stroke="#000" stroke-miterlimit="10" stroke-width=".5669"/>
<path transform="matrix(1.333 0 0 -1.333 96 96)" d="m-30.3-101.9v15.03" fill="none" stroke="#000" stroke-miterlimit="10" stroke-width=".5669"/>
<path transform="matrix(1.333 0 0 -1.333 96 96)" d="m-30.02-101.6h20.71" fill="none" stroke="#000" stroke-miterlimit="10" stroke-width=".5669"/>
<g transform="matrix(1.333 0 0 1.333 64.56 223.3)" aria-label="CAssume
10">
<path d="m7.571-6.926c0-0.02344-0.02344-0.09375-0.1055-0.09375-0.03516 0-0.04688 0.01172-0.1523 0.1172l-0.7031 0.7617c-0.08203-0.1406-0.5391-0.8789-1.652-0.8789-2.215 0-4.453 2.203-4.453 4.512 0 1.641 1.172 2.73 2.695 2.73 0.8672 0 1.617-0.3984 2.145-0.8555 0.9375-0.8203 1.102-1.723 1.102-1.758 0-0.1055-0.1055-0.1055-0.1172-0.1055-0.05859 0-0.1172 0.02344-0.1289 0.1055-0.09375 0.293-0.3164 0.9961-1.008 1.57-0.6914 0.5625-1.312 0.7266-1.84 0.7266-0.8906 0-1.945-0.5156-1.945-2.062 0-0.5742 0.2109-2.191 1.207-3.352 0.6094-0.7031 1.535-1.207 2.426-1.207 1.02 0 1.605 0.7734 1.605 1.922 0 0.3984-0.03516 0.4102-0.03516 0.5039 0 0.1055 0.1172 0.1055 0.1523 0.1055 0.1289 0 0.1289-0.02344 0.1758-0.1992z"/>
<path d="m47.61-2.228e-4v-0.3047h-0.1758c-0.5977 0-0.7383-0.07031-0.8438-0.3984l-2.156-6.234c-0.04687-0.1289-0.07031-0.1992-0.2227-0.1992-0.1641 0-0.1875 0.05859-0.2461 0.1992l-2.062 5.965c-0.1758 0.5039-0.5742 0.6562-1.113 0.668v0.3047l1.02-0.03516 1.148 0.03516v-0.3047c-0.5039 0-0.75-0.2578-0.75-0.5156 0-0.02344 0.01172-0.1289 0.02344-0.1406l0.457-1.312h2.461l0.5273 1.523c0.01172 0.04688 0.02344 0.1055 0.02344 0.1406 0 0.3047-0.5508 0.3047-0.8203 0.3047v0.3047c0.3516-0.03516 1.055-0.03516 1.43-0.03516zm-2.578-2.578h-2.238l1.113-3.234zm6.501 1.301c0-0.5273-0.293-0.8203-0.4219-0.9492-0.3281-0.3164-0.7148-0.3984-1.137-0.4688-0.5508-0.1172-1.219-0.2461-1.219-0.8203 0-0.3516 0.2578-0.7617 1.113-0.7617 1.102 0 1.148 0.9023 1.172 1.207 0 0.09375 0.1172 0.09375 0.1172 0.09375 0.1289 0 0.1289-0.04688 0.1289-0.2461v-0.9961c0-0.1758 0-0.2461-0.1172-0.2461-0.04687 0-0.07031 0-0.1992 0.1172-0.02344 0.04688-0.1289 0.1289-0.1641 0.1641-0.375-0.2812-0.7852-0.2812-0.9375-0.2812-1.219 0-1.594 0.668-1.594 1.23 0 0.3398 0.1641 0.6211 0.4336 0.8438 0.3164 0.2578 0.5977 0.3164 1.312 0.457 0.2227 0.03516 1.031 0.1992 1.031 0.9141 0 0.5156-0.3516 0.9141-1.125 0.9141-0.832 0-1.195-0.5742-1.383-1.418-0.03516-0.1289-0.03516-0.1758-0.1406-0.1758-0.1289 0-0.1289 0.07031-0.1289 0.2578v1.313c0 0.1641 0 0.2344 0.1055 0.2344 0.05859 0 0.07031 0 0.2578-0.1992 0.01172-0.01172 0.01172-0.03516 0.1992-0.2227 0.4336 0.4219 0.8789 0.4219 1.09 0.4219 1.148 0 1.605-0.668 1.605-1.383zm3.926 0c0-0.5273-0.293-0.8203-0.4219-0.9492-0.3281-0.3164-0.7148-0.3984-1.137-0.4688-0.5508-0.1172-1.219-0.2461-1.219-0.8203 0-0.3516 0.2578-0.7617 1.113-0.7617 1.102 0 1.148 0.9023 1.172 1.207 0 0.09375 0.1172 0.09375 0.1172 0.09375 0.1289 0 0.1289-0.04688 0.1289-0.2461v-0.9961c0-0.1758 0-0.2461-0.1172-0.2461-0.04687 0-0.07031 0-0.1992 0.1172-0.02344 0.04688-0.1289 0.1289-0.1641 0.1641-0.375-0.2812-0.7852-0.2812-0.9375-0.2812-1.219 0-1.594 0.668-1.594 1.23 0 0.3398 0.1641 0.6211 0.4336 0.8438 0.3164 0.2578 0.5977 0.3164 1.312 0.457 0.2227 0.03516 1.031 0.1992 1.031 0.9141 0 0.5156-0.3516 0.9141-1.125 0.9141-0.832 0-1.195-0.5742-1.383-1.418-0.03516-0.1289-0.03516-0.1758-0.1406-0.1758-0.1289 0-0.1289 0.07031-0.1289 0.2578v1.313c0 0.1641 0 0.2344 0.1055 0.2344 0.05859 0 0.07031 0 0.2578-0.1992 0.01172-0.01172 0.01172-0.03516 0.1992-0.2227 0.4336 0.4219 0.8789 0.4219 1.09 0.4219 1.148 0 1.605-0.668 1.605-1.383zm5.672 1.277v-0.3047c-0.7031 0-0.7852-0.07031-0.7852-0.5625v-3.539l-1.453 0.1172v0.3047c0.6914 0 0.7734 0.07031 0.7734 0.5625v1.77c0 0.8672-0.4805 1.547-1.207 1.547-0.832 0-0.8789-0.4688-0.8789-0.9961v-3.305l-1.465 0.1172v0.3047c0.7852 0 0.7852 0.03516 0.7852 0.9141v1.5c0 0.7734 0 1.676 1.512 1.676 0.5508 0 0.9961-0.2695 1.277-0.8906v0.8906zm8.303 0v-0.3047c-0.5156 0-0.7617 0-0.7734-0.3047v-1.898c0-0.8555 0-1.172-0.3164-1.523-0.1289-0.1758-0.4688-0.375-1.043-0.375-0.832 0-1.277 0.5977-1.441 0.9844-0.1406-0.8672-0.8789-0.9844-1.324-0.9844-0.7266 0-1.195 0.4336-1.477 1.055v-1.055l-1.406 0.1172v0.3047c0.7031 0 0.7852 0.07031 0.7852 0.5625v2.66c0 0.457-0.1172 0.457-0.7852 0.457v0.3047l1.125-0.03516 1.113 0.03516v-0.3047c-0.6562 0-0.7734 0-0.7734-0.457v-1.828c0-1.031 0.7148-1.594 1.348-1.594 0.6211 0 0.7383 0.5391 0.7383 1.102v2.32c0 0.457-0.1172 0.457-0.7734 0.457v0.3047l1.125-0.03516 1.113 0.03516v-0.3047c-0.668 0-0.7852 0-0.7852-0.457v-1.828c0-1.031 0.7148-1.594 1.348-1.594 0.6328 0 0.7383 0.5391 0.7383 1.102v2.32c0 0.457-0.1055 0.457-0.7734 0.457v0.3047l1.125-0.03516zm4.339-1.184c0-0.1055-0.08203-0.1172-0.1289-0.1172-0.09375 0-0.1172 0.05859-0.1289 0.1406-0.3516 1.02-1.254 1.02-1.348 1.02-0.5039 0-0.9023-0.293-1.125-0.668-0.3047-0.4805-0.3047-1.137-0.3047-1.488h2.789c0.2109 0 0.2461 0 0.2461-0.2109 0-0.9844-0.5391-1.957-1.781-1.957-1.16 0-2.074 1.031-2.074 2.273 0 1.336 1.043 2.297 2.191 2.297 1.219 0 1.664-1.102 1.664-1.289zm-0.6562-1.324h-2.367c0.05859-1.488 0.9023-1.734 1.242-1.734 1.02 0 1.125 1.348 1.125 1.734z"/>
<path d="m-40.51 12.95c0-0.2344 0-0.2578-0.2344-0.2578-0.6094 0.6328-1.488 0.6328-1.805 0.6328v0.3164c0.1992 0 0.7852 0 1.301-0.2578v5.156c0 0.3516-0.03516 0.4805-0.9258 0.4805h-0.3164v0.3047c0.3516-0.03516 1.207-0.03516 1.605-0.03516 0.3984 0 1.266 0 1.617 0.03516v-0.3047h-0.3164c-0.9023 0-0.9258-0.1172-0.9258-0.4805zm6.636 3.188c0-0.7969-0.04687-1.594-0.3984-2.332-0.457-0.9609-1.277-1.113-1.688-1.113-0.5977 0-1.336 0.2578-1.734 1.184-0.3281 0.6914-0.375 1.465-0.375 2.262 0 0.75 0.04687 1.641 0.4453 2.402 0.4336 0.8086 1.16 1.008 1.652 1.008 0.5391 0 1.289-0.2109 1.734-1.16 0.3164-0.6914 0.3633-1.465 0.3633-2.25zm-2.098 3.188c-0.3867 0-0.9844-0.2461-1.16-1.207-0.1055-0.5977-0.1055-1.512-0.1055-2.098 0-0.6445 0-1.301 0.08203-1.84 0.1875-1.184 0.9258-1.266 1.184-1.266 0.3281 0 0.9844 0.1758 1.172 1.16 0.09375 0.5625 0.09375 1.312 0.09375 1.945 0 0.75 0 1.418-0.1055 2.062-0.1523 0.9375-0.7148 1.242-1.16 1.242z"/>
</g>
<path transform="matrix(1.333 0 0 -1.333 96 96)" d="m-46.81-121.2v19.32" fill="none" stroke="#000" stroke-miterlimit="10" stroke-width=".5669"/>
<path transform="matrix(1.333 0 0 -1.333 96 96)" d="m-30.3-121.2v19.32" fill="none" stroke="#000" stroke-miterlimit="10" stroke-width=".5669"/>
<g transform="matrix(1.333 0 0 1.333 64.56 249)" aria-label="⊥¬E,5,9
∴">
<path d="m4.078-6.294c0-0.1875 0-0.3633-0.1992-0.3633-0.1992 0-0.1992 0.2109-0.1992 0.3633v5.895h-2.777c-0.1406 0-0.3516 0-0.3516 0.1992s0.2109 0.1992 0.3516 0.1992h5.953c0.1641 0 0.3516 0 0.3516-0.1992s-0.1875-0.1992-0.3516-0.1992h-2.777zm42.48 3.105c0-0.3281-0.02344-0.3633-0.3398-0.3633h-4.84c-0.1758 0-0.3516 0-0.3516 0.1992 0 0.1992 0.1758 0.1992 0.3516 0.1992h4.781v1.91c0 0.1758 0 0.3516 0.1992 0.3516s0.1992-0.1758 0.1992-0.3516z"/>
<path d="m53.61-2.568h-0.2461c-0.2461 1.535-0.4805 2.262-2.191 2.262h-1.324c-0.4688 0-0.4922-0.07031-0.4922-0.3984v-2.66h0.9023c0.9609 0 1.078 0.3164 1.078 1.16h0.2461v-2.637h-0.2461c0 0.8555-0.1172 1.16-1.078 1.16h-0.9023v-2.391c0-0.3281 0.02344-0.3984 0.4922-0.3984h1.289c1.523 0 1.793 0.5508 1.945 1.934h0.2461l-0.2695-2.238h-5.613v0.3047h0.2344c0.7734 0 0.7969 0.1172 0.7969 0.4688v5.227c0 0.3516-0.02344 0.4688-0.7969 0.4688h-0.2344v0.3047h5.754zm2.317 2.555c0-0.6328-0.2461-1.043-0.6445-1.043-0.3516 0-0.5273 0.2695-0.5273 0.5273s0.1758 0.5273 0.5273 0.5273c0.1523 0 0.293-0.05859 0.3984-0.1641 0.02344 0.7969-0.2578 1.395-0.6914 1.863-0.05859 0.05859-0.07031 0.07031-0.07031 0.1172 0 0.07031 0.04687 0.1055 0.09375 0.1055 0.1172 0 0.9141-0.7852 0.9141-1.934z"/>
<path d="m64.47-2.005c0-1.184-0.8203-2.18-1.898-2.18-0.4805 0-0.9023 0.1641-1.266 0.5039v-1.934c0.1992 0.05859 0.5273 0.1289 0.8438 0.1289 1.23 0 1.934-0.9141 1.934-1.043 0-0.05859-0.03516-0.1055-0.1055-0.1055-0.01172 0-0.03516 0-0.08203 0.02344-0.1992 0.09375-0.6797 0.293-1.348 0.293-0.3984 0-0.8555-0.07031-1.324-0.2812-0.08203-0.02344-0.1055-0.02344-0.1289-0.02344-0.09375 0-0.09375 0.08203-0.09375 0.2344v2.953c0 0.1758 0 0.2578 0.1406 0.2578 0.07031 0 0.08203-0.03516 0.1289-0.09375 0.1055-0.1523 0.4805-0.6914 1.277-0.6914 0.5273 0 0.7734 0.457 0.8555 0.6328 0.1523 0.375 0.1758 0.7617 0.1758 1.254 0 0.3516 0 0.9492-0.2344 1.371-0.2461 0.3867-0.6094 0.6445-1.066 0.6445-0.7266 0-1.301-0.5273-1.465-1.113 0.02344 0.01172 0.05859 0.01172 0.1641 0.01172 0.3281 0 0.5039-0.2461 0.5039-0.4805 0-0.2461-0.1758-0.4922-0.5039-0.4922-0.1406 0-0.4805 0.07031-0.4805 0.5273 0 0.8555 0.6797 1.828 1.793 1.828 1.16 0 2.18-0.9609 2.18-2.227z"/>
<path d="m67-0.01318c0-0.6328-0.2461-1.043-0.6445-1.043-0.3516 0-0.5273 0.2695-0.5273 0.5273s0.1758 0.5273 0.5273 0.5273c0.1523 0 0.293-0.05859 0.3984-0.1641 0.02344 0.7969-0.2578 1.395-0.6914 1.863-0.05859 0.05859-0.07031 0.07031-0.07031 0.1172 0 0.07031 0.04687 0.1055 0.09375 0.1055 0.1172 0 0.9141-0.7852 0.9141-1.934z"/>
<path d="m74.72-3.166v0.3164c0 2.332-1.031 2.789-1.617 2.789-0.1641 0-0.7031-0.02344-0.9727-0.3633 0.4336 0 0.5156-0.2812 0.5156-0.457 0-0.3047-0.2344-0.457-0.457-0.457-0.1641 0-0.457 0.09375-0.457 0.4805 0 0.668 0.5391 1.078 1.383 1.078 1.289 0 2.496-1.359 2.496-3.504 0-2.672-1.137-3.352-2.027-3.352-0.5508 0-1.031 0.1758-1.465 0.6211-0.4102 0.457-0.6328 0.8672-0.6328 1.617 0 1.242 0.8789 2.227 1.992 2.227 0.6094 0 1.008-0.4219 1.242-0.9961zm-1.23 0.7617c-0.1641 0-0.6211 0-0.9258-0.6211-0.1875-0.375-0.1875-0.8672-0.1875-1.359 0-0.5391 0-1.008 0.2109-1.371 0.2695-0.5039 0.6445-0.6328 0.9961-0.6328 0.457 0 0.7852 0.3398 0.9609 0.7852 0.1172 0.3164 0.1523 0.9492 0.1523 1.406 0 0.832-0.3398 1.793-1.207 1.793z"/>
<path d="m-39.6 15.23c0-0.293-0.2344-0.5273-0.5273-0.5273s-0.5273 0.2344-0.5273 0.5273c0 0.2812 0.2344 0.5273 0.5273 0.5273 0.2812 0 0.5273-0.2344 0.5273-0.5273zm2.496 4.312c0-0.293-0.2461-0.5273-0.5273-0.5273-0.293 0-0.5273 0.2344-0.5273 0.5273 0 0.2812 0.2344 0.5273 0.5273 0.5273 0.2812 0 0.5273-0.2461 0.5273-0.5273zm-4.98 0c0-0.293-0.2461-0.5273-0.5273-0.5273-0.293 0-0.5273 0.2344-0.5273 0.5273 0 0.2812 0.2344 0.5273 0.5273 0.5273 0.2812 0 0.5273-0.2461 0.5273-0.5273z"/>
</g>
<path transform="matrix(1.333 0 0 -1.333 96 96)" d="m-46.81-140.5v19.32" fill="none" stroke="#000" stroke-miterlimit="10" stroke-width=".5669"/>
<g transform="matrix(1.333 0 0 1.333 42.55 274.8)" aria-label="⊥∨E,2,7–8,9–10">
<path d="m4.077-6.293c0-0.1875 0-0.3633-0.1992-0.3633-0.1992 0-0.1992 0.2109-0.1992 0.3633v5.895h-2.777c-0.1406 0-0.3516 0-0.3516 0.1992s0.2109 0.1992 0.3516 0.1992h5.953c0.1641 0 0.3516 0 0.3516-0.1992s-0.1875-0.1992-0.3516-0.1992h-2.777zm58.92 0.7383c0.07031-0.1289 0.07031-0.1523 0.07031-0.1992 0-0.1172-0.08203-0.1992-0.1992-0.1992-0.09375 0-0.1523 0.07031-0.2227 0.2109l-2.344 5.273-2.344-5.273c-0.07031-0.1992-0.1523-0.2109-0.2227-0.2109-0.1172 0-0.1992 0.08203-0.1992 0.1992 0 0.01172 0 0.03516 0.05859 0.1523l2.484 5.613c0.07031 0.1641 0.1289 0.2109 0.2227 0.2109 0.1289 0 0.1641-0.07031 0.2227-0.2109z"/>
<path d="m70.12-2.566h-0.2461c-0.2461 1.535-0.4805 2.262-2.191 2.262h-1.324c-0.4688 0-0.4922-0.07031-0.4922-0.3984v-2.66h0.9023c0.9609 0 1.078 0.3164 1.078 1.16h0.2461v-2.637h-0.2461c0 0.8555-0.1172 1.16-1.078 1.16h-0.9023v-2.391c0-0.3281 0.02344-0.3984 0.4922-0.3984h1.289c1.523 0 1.793 0.5508 1.945 1.934h0.2461l-0.2695-2.238h-5.613v0.3047h0.2344c0.7734 0 0.7969 0.1172 0.7969 0.4688v5.227c0 0.3516-0.02344 0.4688-0.7969 0.4688h-0.2344v0.3047h5.754zm2.317 2.555c0-0.6328-0.2461-1.043-0.6445-1.043-0.3516 0-0.5273 0.2695-0.5273 0.5273s0.1758 0.5273 0.5273 0.5273c0.1523 0 0.293-0.05859 0.3984-0.1641 0.02344 0.7969-0.2578 1.395-0.6914 1.863-0.05859 0.05859-0.07031 0.07031-0.07031 0.1172 0 0.07031 0.04687 0.1055 0.09375 0.1055 0.1172 0 0.9141-0.7852 0.9141-1.934z"/>
<path d="m77.76-0.7615 1.055-1.031c1.559-1.371 2.156-1.91 2.156-2.906 0-1.137-0.9023-1.934-2.121-1.934-1.125 0-1.852 0.9141-1.852 1.805 0 0.5508 0.4922 0.5508 0.5273 0.5508 0.1641 0 0.5156-0.1172 0.5156-0.5273 0-0.2578-0.1875-0.5156-0.5273-0.5156-0.08203 0-0.1055 0-0.1289 0.01172 0.2227-0.6445 0.7617-1.02 1.336-1.02 0.9141 0 1.336 0.8086 1.336 1.629 0 0.7969-0.4922 1.582-1.043 2.203l-1.91 2.133c-0.1055 0.1055-0.1055 0.1289-0.1055 0.3633h3.691l0.2812-1.734h-0.2578c-0.04687 0.3047-0.1172 0.7383-0.2109 0.8906-0.07031 0.08203-0.7266 0.08203-0.9492 0.08203z"/>
<path d="m83.51-0.01149c0-0.6328-0.2461-1.043-0.6445-1.043-0.3516 0-0.5273 0.2695-0.5273 0.5273s0.1758 0.5273 0.5273 0.5273c0.1523 0 0.293-0.05859 0.3984-0.1641 0.02344 0.7969-0.2578 1.395-0.6914 1.863-0.05859 0.05859-0.07031 0.07031-0.07031 0.1172 0 0.07031 0.04687 0.1055 0.09375 0.1055 0.1172 0 0.9141-0.7852 0.9141-1.934z"/>
<path d="m92.31-6.07c0.08203-0.1172 0.08203-0.1406 0.08203-0.3398h-2.414c-1.219 0-1.242-0.1289-1.277-0.3281h-0.2461l-0.3281 2.051h0.2461c0.02344-0.1523 0.1172-0.7852 0.2461-0.9023 0.07031-0.05859 0.8438-0.05859 0.9727-0.05859h2.062c-0.1055 0.1641-0.8906 1.242-1.113 1.57-0.8906 1.348-1.219 2.73-1.219 3.75 0 0.09375 0 0.5508 0.457 0.5508s0.457-0.457 0.457-0.5508v-0.5039c0-0.5508 0.02344-1.102 0.1055-1.641 0.04687-0.2227 0.1758-1.078 0.6211-1.699z"/>
<path d="m97.52-2.543v-0.2109h-4.969v0.2109z"/>
<path d="m99.16-4.547c-0.4688-0.3047-0.5039-0.6445-0.5039-0.8086 0-0.6094 0.6445-1.031 1.359-1.031 0.7266 0 1.359 0.5156 1.359 1.242 0 0.5625-0.3867 1.043-0.9844 1.395zm1.453 0.9375c0.7148-0.3633 1.207-0.8789 1.207-1.535 0-0.9258-0.8906-1.488-1.793-1.488-0.9961 0-1.805 0.7383-1.805 1.664 0 0.1758 0.01172 0.6211 0.4336 1.09 0.1055 0.1289 0.4805 0.375 0.7266 0.5391-0.5742 0.293-1.43 0.8438-1.43 1.84 0 1.055 1.008 1.723 2.063 1.723 1.125 0 2.062-0.832 2.062-1.898 0-0.3516-0.1055-0.8086-0.4805-1.219-0.1875-0.2109-0.3516-0.3164-0.9844-0.7148zm-0.9961 0.4219 1.219 0.7734c0.2812 0.1875 0.75 0.4922 0.75 1.102 0 0.7383-0.75 1.254-1.559 1.254-0.8672 0-1.582-0.6211-1.582-1.441 0-0.5859 0.3164-1.219 1.172-1.688z"/>
<path d="m104.5-0.01149c0-0.6328-0.2461-1.043-0.6445-1.043-0.3516 0-0.5273 0.2695-0.5273 0.5273s0.1758 0.5273 0.5273 0.5273c0.1524 0 0.293-0.05859 0.3984-0.1641 0.0234 0.7969-0.2578 1.395-0.6914 1.863-0.0586 0.05859-0.0703 0.07031-0.0703 0.1172 0 0.07031 0.0469 0.1055 0.0937 0.1055 0.1172 0 0.9141-0.7852 0.9141-1.934z"/>
<path d="m112.3-3.164v0.3164c0 2.332-1.031 2.789-1.617 2.789-0.1641 0-0.7031-0.02344-0.9726-0.3633 0.4336 0 0.5156-0.2812 0.5156-0.457 0-0.3047-0.2344-0.457-0.457-0.457-0.1641 0-0.457 0.09375-0.457 0.4805 0 0.668 0.5391 1.078 1.383 1.078 1.289 0 2.496-1.359 2.496-3.504 0-2.672-1.137-3.352-2.027-3.352-0.5508 0-1.031 0.1758-1.465 0.6211-0.4102 0.457-0.6328 0.8672-0.6328 1.617 0 1.242 0.8789 2.227 1.992 2.227 0.6094 0 1.008-0.4219 1.242-0.9961zm-1.23 0.7617c-0.1641 0-0.6211 0-0.9258-0.6211-0.1875-0.375-0.1875-0.8672-0.1875-1.359 0-0.5391 0-1.008 0.2109-1.371 0.2695-0.5039 0.6445-0.6328 0.9961-0.6328 0.457 0 0.7852 0.3398 0.9609 0.7852 0.1172 0.3164 0.1523 0.9492 0.1523 1.406 0 0.832-0.3398 1.793-1.207 1.793z"/>
<path d="m118.5-2.543v-0.2109h-4.969v0.2109z"/>
<path d="m121.5-6.375c0-0.2344 0-0.2578-0.2344-0.2578-0.6094 0.6328-1.488 0.6328-1.805 0.6328v0.3164c0.1992 0 0.7852 0 1.301-0.2578v5.156c0 0.3516-0.0352 0.4805-0.9258 0.4805h-0.3164v0.3047c0.3516-0.03516 1.207-0.03516 1.605-0.03516 0.3984 0 1.266 0 1.617 0.03516v-0.3047h-0.3164c-0.9024 0-0.9258-0.1172-0.9258-0.4805zm6.636 3.188c0-0.7969-0.0469-1.594-0.3984-2.332-0.457-0.9609-1.277-1.113-1.688-1.113-0.5976 0-1.336 0.2578-1.734 1.184-0.3281 0.6914-0.375 1.465-0.375 2.262 0 0.75 0.0469 1.641 0.4453 2.402 0.4336 0.8086 1.16 1.008 1.652 1.008 0.5391 0 1.289-0.2109 1.734-1.16 0.3164-0.6914 0.3633-1.465 0.3633-2.25zm-2.098 3.188c-0.3867 0-0.9844-0.2461-1.16-1.207-0.1055-0.5977-0.1055-1.512-0.1055-2.098 0-0.6445 0-1.301 0.082-1.84 0.1875-1.184 0.9258-1.266 1.184-1.266 0.3281 0 0.9844 0.1758 1.172 1.16 0.0937 0.5625 0.0937 1.312 0.0937 1.945 0 0.75 0 1.418-0.1055 2.062-0.1523 0.9375-0.7148 1.242-1.16 1.242z"/>
</g>
</svg>
